<?xml version="1.0" encoding="UTF-8" standalone="no"?>
<svg
   version="1.1"
   width="612pt"
   height="792pt"
   id="svg4"
   viewBox="0 0 612 792"
   sodipodi:docname="Anathema.cdr"
   xmlns:inkscape="http://www.inkscape.org/namespaces/inkscape"
   xmlns:sodipodi="http://sodipodi.sourceforge.net/DTD/sodipodi-0.dtd"
   xmlns="http://www.w3.org/2000/svg"
   xmlns:svg="http://www.w3.org/2000/svg">
  <defs
     id="defs8" />
  <sodipodi:namedview
     id="namedview6"
     pagecolor="#ffffff"
     bordercolor="#000000"
     borderopacity="0.25"
     inkscape:showpageshadow="2"
     inkscape:pageopacity="0.0"
     inkscape:pagecheckerboard="0"
     inkscape:deskcolor="#d1d1d1"
     inkscape:document-units="pt" />
  <path
     d="m 169.2106,360.3834 -31.7781,33.0439 h 29.367 c 0.0603,-1.0509 0.1135,-2.1193 0.159,-3.2094 z m 131.811,73.8035 -4e-4,8e-4 c 0.3772,-2.555 0.0184,-5.253 -1.2411,-7.9362 -1.2555,-2.6756 -3.1962,-4.8701 -5.4978,-6.6802 -3.7286,1.14 -7.4095,2.7595 -11.1876,5.0108 -2.3376,1.3929 -4.5001,2.8242 -6.6063,4.2691 0.0943,0.0456 0.1878,0.0899 0.2777,0.1319 2.7591,1.2827 5.8947,2.3475 9.3535,3.2242 5.0455,1.4413 10.0139,2.115 14.902,1.9796 z m -0.1906,1.0125 8e-4,10e-4 c -0.4032,1.7766 -1.1636,3.4716 -2.2257,5.0272 -1.4916,-0.2733 -2.9912,-0.5842 -4.4969,-0.9315 -7.7663,-1.2946 -15.5462,-3.7117 -23.394,-6.4376 1.6691,-1.1468 3.3022,-2.3008 4.9608,-3.448 0.1539,0.0731 0.3053,0.145 0.4532,0.2133 2.8178,1.3071 6.1096,2.4735 9.8877,3.496 4.9908,1.4772 9.9308,2.2149 14.8141,2.0794 z m 0.9974,-0.0399 0.002,-0.002 c -0.4176,1.8277 -1.2084,3.5834 -2.3176,5.2321 11.5771,2.0099 22.5721,1.7378 31.136,-1.3853 7.837,-2.8583 12.9609,-10.9171 10.2884,-19.3695 -4.4289,1.4817 -8.5323,3.516 -12.8558,6.1177 -5.4994,3.3093 -10.9837,5.5578 -16.116,7.5301 -2.843,0.9251 -5.7084,1.5052 -8.5958,1.7682 -0.5127,0.0467 -1.0265,0.0823 -1.5408,0.1091 z m 0.1974,-1.0122 -0.005,-0.005 c 0.4108,-2.7383 -0.0168,-5.6209 -1.4669,-8.5399 -1.1552,-2.3256 -2.9445,-4.4773 -5.0723,-6.3805 1.1037,-0.3065 2.2117,-0.5734 3.3301,-0.8028 0.7736,0.3245 1.6355,0.4867 2.5817,0.4867 0.6949,0 1.4333,-0.1359 2.2181,-0.4048 0.0971,3.7413 3.5016,6.8337 8.1344,7.3116 2.1949,0.1762 5.3843,-0.0883 7.4578,-1.536 1.4189,-0.991 2.3715,-2.3967 2.4271,-3.816 0.0699,-1.7774 -0.9411,-2.8934 -2.2777,-3.4952 l 3.9195,-0.3244 c 2.0115,-2.5006 3.9567,-4.8666 5.8364,-7.0982 4.57,1.2019 8.8056,3.5554 10.8407,7.6508 0.2953,0.5938 0.549,1.1883 0.764,1.7813 -3.5515,1.1348 -7.0227,2.6297 -10.428,4.5856 -5.9314,3.4073 -12.3763,6.9045 -18.4883,8.9595 -2.8562,0.8188 -5.7436,1.335 -8.6598,1.5576 -0.37,0.028 -0.7408,0.0511 -1.112,0.0695 z m 130.9236,-75.8525 -0.002,0.003 c -0.5083,0.0319 -1.015,0.0727 -1.5217,0.1242 -2.8586,0.2901 -5.692,0.8955 -8.4991,1.8433 -5.0643,2.0119 -10.5714,3.5275 -15.9841,6.8716 -4.2556,2.6285 -8.2994,4.692 -12.672,6.2088 -2.744,-8.3733 2.3403,-15.6609 10.0751,-18.5795 8.4516,-3.1894 19.3458,-3.5706 30.8422,-1.689 -1.0797,1.6483 -1.8449,3.3993 -2.238,5.2178 z m -0.1787,1.0097 8e-4,10e-4 c -0.3696,0.0224 -0.7376,0.0484 -1.106,0.0803 -2.8874,0.2502 -5.7436,0.7924 -8.5647,1.6347 -6.0345,2.1038 -12.479,4.8705 -18.3193,8.3161 -3.3521,1.978 -6.7757,3.4984 -10.2829,4.6616 0.2194,0.587 0.4779,1.1756 0.7768,1.7626 3.5056,6.8804 13.3437,9.4725 20.2913,9.2028 0.4963,-0.0192 0.9881,-0.0524 1.476,-0.0967 0.7053,-0.6122 1.339,-1.1185 1.8985,-1.5197 2.0183,-1.464 3.8963,-2.2061 5.5869,-2.2061 0.8703,0 1.6331,0.1767 2.2904,0.5355 0.0204,-0.0148 0.0412,-0.0292 0.0616,-0.044 0.8755,-0.6437 1.6107,-1.3138 2.0762,-2.1022 -0.004,-0.0124 -0.006,-0.0243 -0.01,-0.0367 0.6066,-1.0993 1.0234,-2.1422 1.2271,-3.1224 -3.0532,0.3732 -16.8604,3.1471 -16.6826,-3.267 0.0396,-1.4117 0.9678,-2.8182 2.3624,-3.8168 2.039,-1.4601 5.197,-1.755 7.3743,-1.6015 4.9404,0.4603 8.5087,3.9355 8.1187,8.028 2.76,-0.3476 5.4348,-0.8771 8.0744,-1.6411 -2.1302,-1.87 -3.9279,-3.9902 -5.0991,-6.2902 -1.4712,-2.8886 -1.9284,-5.7508 -1.5508,-8.4784 z m 0.9882,-0.042 0.004,-0.006 c 4.8426,-0.1835 9.7742,0.4359 14.7902,1.8177 3.4376,0.8367 6.5576,1.8636 9.3063,3.1107 0.0899,0.0408 0.1826,0.0839 0.2769,0.1279 -2.0714,1.4573 -4.1984,2.9018 -6.4992,4.3095 -3.7189,2.2748 -7.3488,3.9215 -11.0309,5.0915 -2.3016,-1.7758 -4.25,-3.9371 -5.5243,-6.5836 -1.2774,-2.652 -1.6662,-5.3268 -1.3226,-7.8678 z m 0.177,-1.0133 -8e-4,-8e-4 c 4.8382,-0.1838 9.7459,0.4999 14.7091,1.9176 3.7557,0.9782 7.0319,2.105 9.8389,3.3753 0.1475,0.0667 0.2981,0.1362 0.4512,0.2078 1.6311,-1.1568 3.237,-2.32 4.8781,-3.4764 -7.8087,-2.6305 -15.5462,-4.9548 -23.2578,-6.1636 -1.496,-0.33 -2.9861,-0.6237 -4.4673,-0.8807 -1.0353,1.5572 -1.7714,3.2502 -2.1514,5.0208 z m 1.5009,73.5877 h 8e-4 c -0.5059,-2.7112 -0.1834,-5.5961 1.1488,-8.5563 1.0653,-2.3679 2.7715,-4.586 4.8249,-6.5691 -2.2844,-0.5415 -4.5876,-0.9135 -6.9383,-1.1452 l -1.2511,0.1254 c 0.4335,3.9975 -2.9514,7.5362 -7.8115,8.2259 -2.1865,0.2597 -5.3836,0.1171 -7.511,-1.2507 -1.4556,-0.9362 -2.461,-2.3044 -2.5709,-3.7209 -0.209,-2.6968 2.1354,-3.9575 4.3683,-4.2073 -0.003,-0.0119 -0.006,-0.0219 -0.009,-0.0339 3.0232,-0.0983 5.8779,-0.1271 8.6278,-0.042 l 2.1106,-3.1631 c -0.5043,-0.6661 -1.21,-1.2339 -2.0287,-1.7753 -1.8549,-1.2264 -4.437,-2.099 -7.324,-2.5178 -0.9985,1.2103 -2.0251,2.465 -3.082,3.7665 l -3.607,4.4533 -8.7621,0.8663 5.9938,-8.9255 c -5.969,0.9538 -12.2688,3.5739 -14.7175,9.0126 -0.2725,0.6046 -0.5035,1.2088 -0.6957,1.8093 3.5923,0.9986 7.1182,2.36 10.5954,4.1845 6.0573,3.1791 12.6304,6.4277 18.8164,8.2482 2.8854,0.7092 5.7904,1.1152 8.7129,1.2263 0.3732,0.014 0.7464,0.0228 1.1205,0.0276 l -0.002,0.002 c -0.002,-0.0112 -0.004,-0.0224 -0.006,-0.0332 z m 1.0001,-0.004 0.0176,0.0432 c 4.8865,-0.0516 9.8238,-0.9147 14.8074,-2.5462 3.4228,-1.0081 6.5156,-2.1917 9.224,-3.5786 0.0883,-0.0452 0.1798,-0.0931 0.2725,-0.1423 -2.1602,-1.3634 -4.3755,-2.7116 -6.7646,-4.0142 -3.8607,-2.1054 -7.6009,-3.5835 -11.3701,-4.5804 -2.2313,1.8964 -4.087,4.1632 -5.2394,6.8848 -1.1496,2.7136 -1.4109,5.4076 -0.9474,7.9337 z m 0.2402,1.0477 -0.002,0.007 c 0.4711,1.7578 1.2966,3.4209 2.4159,4.9329 1.4796,-0.3297 2.9669,-0.6973 4.4577,-1.1021 7.7116,-1.5895 15.3936,-4.3015 23.1319,-7.3247 -1.7118,-1.0825 -3.3877,-2.1734 -5.0891,-3.2562 -0.1506,0.0787 -0.2993,0.1562 -0.4443,0.2305 -2.7659,1.4133 -6.011,2.7044 -9.7475,3.8704 -4.9292,1.6655 -9.8389,2.5913 -14.7222,2.6424 z m -0.9534,0.1759 h -8e-4 l -0.008,-0.0336 c -0.014,-0.0504 -0.028,-0.1003 -0.0416,-0.1511 l 0.005,0.007 c -0.5151,-0.007 -1.0301,-0.0235 -1.5448,-0.0507 -2.895,-0.1527 -5.7808,-0.623 -8.657,-1.4389 -5.2037,-1.7754 -10.7695,-3.8128 -16.3913,-6.91 -4.4198,-2.4355 -8.5974,-4.3115 -13.0799,-5.6234 -2.348,8.5483 3.0795,16.4058 11.0197,18.9631 8.6765,2.7943 19.6739,2.6472 31.1663,0.1974 -1.1324,-1.552 -1.9728,-3.2151 -2.4674,-4.96 z m 67.1364,-8.1699 c -1.3002,-0.259 -2.7711,-0.1511 -4.3866,0.2741 -3.8436,1.0097 -7.4778,3.1799 -10.9166,5.7092 2.0434,0.4364 4.3626,0.6314 6.9359,0.5978 9.7187,-1.1836 11.8049,-5.9694 8.3589,-6.5715 0.003,-0.004 0.006,-0.006 0.008,-0.01 z m -70.7043,-9.0886 c 0.0507,0.4436 0.0519,0.8759 -0.002,1.2935 -0.5159,4.0194 -5.4483,5.3996 -8.8156,5.4519 -1.4641,0.0224 -2.8459,-0.2282 -4.0714,-0.7412 -4.1888,-1.7534 -2.7551,-5.8076 0.6649,-6.2383 0.1726,-0.0124 0.3449,-0.0248 0.5167,-0.0364 0.0911,-0.002 0.183,-4e-4 0.2765,0.003 -10e-4,-0.007 -0.002,-0.0144 -0.002,-0.0212 2.4878,-0.1642 4.8765,-0.2577 7.1965,-0.2533 l -0.6917,1.0365 z m -1.3578,-4.8565 c -0.002,-0.002 -0.003,-0.004 -0.005,-0.006 -0.002,0.008 -0.005,0.0164 -0.007,0.0248 l -0.002,0.004 c -2.1609,-2.5474 -5.1183,-3.9635 -9.1145,-4.4786 12.8874,-15.5625 20.7971,-23.3444 23.7421,-23.3444 0.6401,0 1.0928,0.1023 1.3622,0.3304 0.2673,0.2262 0.3911,0.6178 0.3911,1.1748 0,0.6805 -0.2265,1.5044 -0.7012,2.453 -0.4528,0.9483 -1.5049,2.6381 -3.1543,5.0927 z m -18.6654,-4.3447 c -0.7072,0.0759 -1.4329,0.1647 -2.1805,0.2645 -7.6736,1.9868 -12.5485,5.6474 -14.3398,11.1664 -2.6673,-0.7108 -5.3688,-1.3877 -8.118,-1.7997 0.3225,-0.165 0.6461,-0.3397 0.9706,-0.5263 2.7851,-1.5923 6.0305,-4.2308 9.6947,-7.9153 4.0782,-4.2036 7.3639,-8.7861 11.3798,-12.9973 4.1021,-4.391 7.216,-7.4214 9.3386,-9.1117 0.1471,-0.1183 0.2917,-0.2329 0.4352,-0.3432 2.3487,-0.3169 4.3422,-0.9003 6.0233,-1.7965 0.2649,0.2673 0.3864,0.68 0.3864,1.2323 0,1.0501 -1.1544,3.2566 -3.4424,6.6371 l -0.4747,0.7847 z m -28.2809,9.2612 c -0.4715,-0.0232 -0.9434,-0.0348 -1.4185,-0.036 -1.2163,-0.003 -2.4419,-0.0164 -3.6766,-0.0332 -0.5434,-0.2517 -1.0133,-0.6073 -1.4109,-1.072 -0.8799,-1.0258 -1.3198,-2.4507 -1.3198,-4.292 0,-0.4407 0.0419,-1.0269 0.125,-1.7182 0.0844,-0.6897 0.2518,-1.8001 0.4819,-3.3073 7.686,-1.759 13.82,-4.252 18.4069,-7.4766 4.5856,-3.2459 6.8684,-6.5964 6.8684,-10.0711 0,-1.7175 -0.6285,-3.1212 -1.9056,-4.1897 -1.2571,-1.0876 -2.9326,-1.6323 -5.026,-1.6323 -3.5603,0 -7.3084,1.1308 -11.2662,3.3713 -3.9355,2.2413 -7.8311,5.4863 -11.6847,9.6947 -3.3249,3.5967 -6.1404,7.4391 -9.6675,10.8699 -3.2682,3.3121 -6.0425,5.8263 -8.3229,7.5829 -2.2804,1.7561 -3.9451,2.6328 -4.9936,2.6328 -0.6785,0 -1.1912,-0.1794 -1.52,-0.5582 -0.3089,-0.3592 -0.4735,-0.8982 -0.4735,-1.5967 0,-0.8979 0.39,-2.0551 1.1723,-3.4916 0.7804,-1.4173 2.2805,-3.6118 4.4998,-6.5659 0.3496,-0.4588 0.8639,-1.1572 1.5,-2.0355 4.0893,-5.388 6.1444,-9.5784 6.1444,-12.5717 0,-1.7566 -0.4312,-3.1735 -1.2747,-4.2712 -0.8419,-1.0972 -1.9511,-1.6359 -3.3693,-1.6359 -1.9112,0 -4.4801,1.2963 -7.6648,3.8916 -3.207,2.5937 -8.1583,7.4826 -14.8993,14.6875 l 15.6369,-25.9374 c 5.8711,0.6018 11.94,0.559 18.1383,0.5231 9.8638,0.0671 18.2814,0.3532 26.9899,-2.4331 2.0443,5.3932 7.1466,9.5668 14.8402,11.1716 2.7663,0.2357 5.2453,0.322 7.4634,0.2353 -1.7282,1.5708 -3.8332,3.6882 -6.3146,6.3502 -3.1088,3.4044 -5.9303,6.9408 -8.9455,10.3552 -1.57,1.7809 -3.0568,3.3721 -4.4602,4.755 -3.3497,3.3078 -6.2195,5.6745 -8.6486,7.0767 -1.3813,0.8055 -2.7151,1.3817 -4.0046,1.7278 z m -9.7139,-0.1347 c -1.3673,-0.0172 -2.7467,-0.03 -4.1372,-0.0292 0,-0.004 0,-0.008 0,-0.0123 -5.9646,-0.0947 -11.6903,0.0367 -17.2133,0.7156 0.4331,-0.2749 0.8911,-0.5854 1.3718,-0.9346 2.2804,-1.6559 5.1378,-4.19 8.5483,-7.5825 2.6876,-2.6944 5.4659,-5.5826 7.7894,-8.6174 -0.4531,1.7074 -0.7328,3.5075 -0.7328,5.2769 0,3.9159 1.0057,7.1613 3.0153,9.7166 0.4271,0.5483 0.8794,1.0366 1.3585,1.4669 z m -7.3503,0.5658 c 0,0.003 0,0.006 0,0.009 0.2685,-0.006 0.535,-0.0104 0.802,-0.0132 0.8043,-0.002 1.6175,0.006 2.4378,0.0216 0,-0.004 -0.001,-0.008 -0.001,-0.0124 1.7122,0.0276 3.3929,0.0947 5.0372,0.165 1.5536,1.0853 3.3477,1.6291 5.3808,1.6291 1.858,0 3.7704,-0.4147 5.73,-1.2431 3.3125,0.3181 6.3438,1.031 9.2408,1.8421 -0.5786,2.1166 -0.7265,4.4933 -0.4256,7.141 0.3768,2.9086 1.6355,5.3824 3.3873,7.4598 6.8061,8.0728 20.1969,8.7465 29.8317,8.1343 3.7345,-0.2369 7.6057,-0.7456 11.5655,-1.5048 0.1683,0.1778 0.3385,0.3552 0.5143,0.5295 5.5007,5.4519 12.678,7.5001 20.969,5.8379 4.8145,-0.9662 9.3558,-2.6964 13.6074,-5.5291 1.8445,-1.2287 3.6106,-2.5905 5.3648,-4.0138 1.896,0.8204 3.9211,1.6083 6.1136,2.3524 11.4309,3.4691 24.8773,0.0187 30.4347,-9.7447 1.0393,-2.7819 1.4001,-5.5254 1.1308,-8.1307 -0.2729,-2.6349 -1.1204,-4.9253 -2.3843,-6.8944 2.2521,-0.2825 4.5457,-0.4779 6.876,-0.5854 3.114,-0.1439 6.3862,-0.2586 9.7451,-0.3253 v -0.5506 c -2.3795,0.0392 -4.6947,0.1055 -6.9056,0.2102 -3.4656,0.1634 -6.7622,0.4391 -9.9828,0.8495 -0.0312,-0.0456 -0.0631,-0.0911 -0.0947,-0.1363 2.0842,-1.5112 5.1003,-4.2879 9.0298,-8.3297 1.9376,-1.9587 3.3976,-3.5003 4.3351,-4.6467 0.9378,-1.1253 1.3973,-1.9184 1.3973,-2.3768 0,-0.1666 -0.0631,-0.2713 -0.1874,-0.354 -0.1259,-0.0831 -0.2921,-0.1259 -0.5422,-0.1259 -0.2921,0 -1.0633,0.7089 -2.3556,2.127 -1.2719,1.4373 -2.4183,2.6265 -3.3976,3.6055 -3.2507,3.3764 -6.023,5.9609 -8.3362,7.7323 -0.4051,0.3077 -0.7923,0.587 -1.1599,0.8403 -1.3426,-1.4964 -2.953,-2.7583 -4.7331,-3.7988 0.6509,-1.2915 1.8249,-3.243 3.4955,-5.8787 l 13.7349,-21.6131 -8.2326,0.4987 -5.1474,7.5034 c 0.1666,-0.5199 0.2909,-1.0205 0.3752,-1.4573 0.0827,-0.4595 0.1239,-0.8763 0.1239,-1.2926 0,-1.7518 -0.6038,-3.1476 -1.7914,-4.2113 -1.2099,-1.062 -2.8142,-1.5831 -4.7942,-1.5831 -1.0157,0 -2.0626,0.1019 -3.1403,0.3073 3.6278,-1.6899 6.8049,-4.1457 8.8224,-7.4295 3.2079,0.2526 6.4852,0.3684 9.9237,0.3648 3.1187,-0.003 6.3134,-0.0703 9.5632,-0.181 v -0.5234 c -4.2152,0.1326 -8.3533,0.1714 -12.4067,0.1798 -2.3128,0.005 -4.592,-0.0791 -6.8353,-0.2522 1.1544,-2.0151 1.8813,-4.3294 2.0219,-6.9583 0.1391,-2.5993 -0.3528,-5.3053 -1.5184,-8.0173 -5.9802,-9.4261 -19.4601,-12.2072 -30.6057,-8.2158 -2.1342,0.8435 -4.0997,1.723 -5.9366,2.6281 -1.8061,-1.329 -3.6214,-2.5961 -5.5075,-3.7273 -4.3478,-2.6089 -8.9283,-4.109 -13.7416,-4.8374 -8.289,-1.2527 -15.2937,1.1244 -20.4711,6.8001 -0.1654,0.1814 -0.3253,0.3656 -0.4831,0.5502 -3.9571,-0.5642 -7.8147,-0.8834 -11.5228,-0.9398 -9.5676,-0.1454 -22.8874,0.3912 -29.2287,8.7305 -1.6319,2.1466 -2.7572,4.6624 -2.9873,7.5681 -0.1679,2.6429 0.0951,4.9948 0.7716,7.0687 -7.6073,2.5385 -17.3576,2.4934 -25.581,2.4115 0,-0.0252 0,-0.0488 0,-0.0728 -5.3524,-0.0555 -10.6445,0.1279 -15.3931,-0.0867 -1.2356,-0.0559 -2.4303,-0.1406 -3.5903,-0.2541 l 18.8803,-31.3174 -8.0152,1.0561 -15.7616,26.2435 c -0.6062,1.0025 -1.2191,1.9903 -1.8393,2.9649 -0.8919,-0.1962 -1.7665,-0.412 -2.63,-0.6493 0.5726,-2.0719 0.7184,-4.3975 0.4191,-6.9876 -0.3744,-2.8454 -1.6227,-5.2641 -3.3597,-7.2944 -6.7485,-7.8893 -20.0203,-8.5303 -29.5692,-7.9185 -3.7013,0.2369 -7.5377,0.7396 -11.462,1.488 -0.1666,-0.1738 -0.3357,-0.3472 -0.5099,-0.5174 -5.4535,-5.3269 -12.5677,-7.3212 -20.7843,-5.6837 -4.7715,0.9518 -9.2716,2.6508 -13.4844,5.4283 -1.8273,1.2048 -3.5775,2.5394 -5.3152,3.9343 -1.8797,-0.7999 -3.8868,-1.5683 -6.0601,-2.2932 -11.3306,-3.3788 -24.6559,0.0152 -30.1602,9.5757 -1.0289,2.7231 -1.3858,5.4079 -1.1176,7.9565 0.2713,2.5777 1.112,4.8177 2.3655,6.7425 -2.2321,0.2798 -4.5045,0.4739 -6.8145,0.5822 -9.3447,0.4388 -19.1544,0.7493 -29.3454,0.1191 0.6897,-8.1663 1.3793,-16.3318 2.069,-24.4977 l 4.9005,-11.7845 -7.9341,0.9334 -5.6337,5.7321 c -7.3236,-6.9164 -23.625,-2.133 -38.3541,14.92 10.7808,-8.3209 23.9427,-11.7517 29.0062,-5.4087 l -9.5812,9.7486 c -10.7704,-4.4302 -21.0964,0.3452 -30.9761,14.3287 11.1511,-8.6738 18.5079,-10.8259 20.3719,-3.5391 l -18.2717,18.5906 -17.5022,18.7361 c -9.7542,1.0001 -19.178,5.2669 -26.9199,11.1783 -6.353,4.8522 -17.8722,18.9695 -7.2541,25.8343 4.0298,2.6057 10.4991,1.8053 17.4243,1.1005 3.7908,-0.384 7.3263,-1.3714 10.8535,-2.9486 6.124,-2.7391 12.3711,-6.9751 18.2997,-10.8299 2.0459,-1.3302 4.0657,-2.6436 6.0896,-3.9047 5.8332,-3.6346 12.4638,-6.9076 18.3233,-9.3151 4.8818,-2.0055 9.2204,-3.4109 12.1022,-3.9207 -2.3331,6.7857 -5.3108,11.8824 -8.7652,15.7244 9.4241,-8.804 19.4909,-15.5135 30.4934,-19.1848 0.0268,0.0455 0.0543,0.0923 0.0811,0.1378 10.4084,-1.0936 21.4752,-1.3366 31.0509,-1.2603 2.3327,0.0184 4.6315,0.1263 6.8932,0.3229 -1.1884,2.0159 -1.9476,4.3371 -2.1198,6.9803 -0.1698,2.6137 0.2953,5.3413 1.4401,8.0816 5.9254,9.5445 19.4937,12.4794 30.7839,8.5771 2.1625,-0.8268 4.1561,-1.6915 6.0197,-2.5833 1.8069,1.3554 3.6238,2.6484 5.5135,3.806 4.3566,2.6688 8.9606,4.2244 13.8084,5.0064 8.3485,1.345 15.4427,-0.9754 20.7312,-6.6331 0.169,-0.181 0.3324,-0.3648 0.4939,-0.5486 3.9858,0.6077 7.8734,0.9682 11.6143,1.0625 9.6511,0.2441 23.0068,-0.9395 29.5,-9.2656 1.6715,-2.1426 2.8347,-4.6627 3.1004,-7.5837 0.1998,-2.6572 -0.0388,-5.0263 -0.6977,-7.1194 2.0191,-0.6489 4.1101,-1.1859 6.3226,-1.6103 0.3429,0.0695 0.7013,0.1055 1.0749,0.1055 0.623,0 1.3862,-0.2162 2.2908,-0.6509 1.0669,-0.1431 2.165,-0.2621 3.297,-0.3588 3.8384,-0.3281 7.9365,-0.6006 12.282,-0.639 z m 137.1119,-10.1634 c -0.0499,-0.016 -0.0995,-0.0316 -0.1498,-0.0471 -0.0815,-0.0256 -0.163,-0.0504 -0.2446,-0.0752 0.1771,-0.2201 0.3553,-0.4435 0.5331,-0.6709 -0.0492,0.2801 -0.0955,0.5435 -0.1387,0.7932 z m -2.3459,-0.6561 c -5.0835,-1.2239 -10.0032,-1.0973 -14.648,0.6789 0.3233,-1.2455 0.7816,-2.5945 1.3758,-4.0474 1.2911,-3.2094 3.084,-6.4401 5.3764,-9.6495 2.3559,-3.2095 4.7311,-5.7117 7.1278,-7.4822 2.4182,-1.7714 4.6275,-2.6473 6.6702,-2.6473 1.1256,0 2.105,0.3752 2.8962,1.1256 0.794,0.7501 1.1892,1.6879 1.1892,2.7724 0,2.5625 -0.9171,5.6069 -2.7723,9.1276 -1.7358,3.2958 -4.1465,6.6631 -7.2153,10.1219 z m -19.9764,3.5463 c -0.1586,0.1119 -0.3161,0.2258 -0.4739,0.342 -5.6981,4.2077 -6.9736,10.7516 -3.7377,15.7588 -3.1212,1.2547 -6.2279,2.5198 -9.3247,3.7421 -1.7534,-1.134 -3.4976,-2.2776 -5.2481,-3.3801 4.6144,-2.6304 10.5961,-7.256 9.741,-12.9257 -0.1866,-1.2355 -0.6497,-2.2049 -1.2998,-2.9609 1.0193,-0.973 2.1018,-2.0447 3.2462,-3.217 2.6608,-2.6581 5.3864,-5.396 7.3803,-8.6091 -0.249,0.9382 -0.4376,1.8964 -0.5834,2.877 -0.1463,0.9586 -0.2078,1.938 -0.2078,2.9174 0,2.0439 0.1702,3.862 0.5079,5.4555 z m -11.5748,-0.4887 c -2.0874,-1.351 -5.0555,-1.5404 -7.5109,-1.4137 -0.4747,0.0244 -0.9478,0.0599 -1.4181,0.1075 0.8335,-1.3055 1.9635,-2.935 3.3876,-4.8873 0.3509,-0.4731 0.8663,-1.1948 1.5045,-2.1018 4.1025,-5.5666 6.1643,-9.8953 6.1643,-12.9881 0,-1.8149 -0.4327,-3.2786 -1.2774,-4.4126 -0.8116,-1.0885 -1.8713,-1.6451 -3.2139,-1.6879 1.4861,-0.8842 2.5781,-2.2752 2.7943,-4.4337 0.569,-5.6693 -5.5798,-9.9748 -10.2769,-12.3651 1.6791,-1.178 3.3497,-2.3972 5.03,-3.6071 3.1255,1.0653 6.2626,2.1725 9.4138,3.2686 -2.9574,5.1259 -1.3738,11.5612 4.4729,15.4651 5.9214,3.9539 12.2412,4.8314 18.7469,3.3217 -0.5399,0.259 -1.0857,0.5407 -1.6391,0.8423 -3.9183,2.1254 -7.8375,5.1475 -11.7558,9.0662 -3.671,3.7553 -6.5915,7.9849 -10.2949,11.6958 -1.4784,1.5432 -2.853,2.9182 -4.1273,4.1301 z m -15.2625,0.0763 c -0.1074,0.0364 -0.2133,0.074 -0.3204,0.1115 -4.1509,1.4593 -8.8792,4.1501 -12.5849,7.5937 -1.9372,-0.4487 -3.8748,-0.7944 -5.8367,-1.0517 7.7359,-9.9392 14.3306,-17.7575 19.7834,-23.4787 5.505,-5.7516 9.1544,-8.6374 10.927,-8.6374 0.5154,0.0407 0.8659,0.165 1.0513,0.3716 0.1854,0.185 0.2881,0.5766 0.3304,1.1336 0,0.9686 -1.1963,2.9277 -3.5678,5.8555 -0.8036,0.9686 -1.4417,1.7314 -1.8761,2.288 -3.299,4.1637 -5.4419,7.2564 -6.4313,9.2975 -0.9902,2.0615 -1.484,4.0414 -1.484,5.9171 0,0.2029 0.003,0.4023 0.009,0.5993 z m 32.1649,22.7515 c -1.6906,1.2735 -3.3333,2.6233 -4.9292,3.9499 -0.3425,0.2853 -0.6837,0.5674 -1.0262,0.8483 6.2987,2.6952 13.1763,4.0694 19.9365,2.535 7.9369,-1.8009 16.0596,-6.7993 16.1371,-13.3693 0.1227,-4.4438 -0.6936,-8.0248 -2.5273,-10.8591 -0.1439,0.02 -0.2885,0.0392 -0.432,0.06 -1.9555,1.1919 -3.7836,1.7961 -5.5026,1.7961 -0.7768,0 -1.4681,-0.1139 -2.0731,-0.342 -9.3602,2.2432 -18.3449,5.9633 -27.2775,9.8621 0.5678,0.8503 1.2826,1.6355 2.1525,2.3248 1.4321,1.1352 3.2246,1.9655 5.3456,2.5101 3.6782,-2.7207 7.547,-5.1394 11.6075,-6.2291 1.7962,-0.4819 3.5008,-0.5598 5.0652,-0.0299 4e-4,-4e-4 8e-4,-10e-4 0.001,-0.002 2.308,0.5766 2.1701,2.9517 0.131,4.5177 -2.7191,2.085 -6.1432,2.9109 -9.345,3.1115 -2.312,0.1447 -4.837,-0.0659 -7.2637,-0.6845 z m -24.9544,-6.4013 c 4.618,-2.6588 11.8709,-8.1759 8.3653,-13.639 -0.1135,-0.1766 -0.2397,-0.3472 -0.3768,-0.5091 -1.4988,1.3774 -2.845,2.5134 -4.0346,3.4033 -2.2896,1.7122 -4.041,2.5569 -5.2577,2.5569 -1.7722,0 -3.1955,-0.8039 -4.2883,-2.4123 -0.7345,-1.0796 -1.2172,-2.3947 -1.4549,-3.9347 -0.1375,0.048 -0.2741,0.0971 -0.4116,0.1467 -3.8684,1.3969 -8.0144,3.3257 -11.3897,6.0529 3.7201,0.9518 7.4642,2.3052 11.4225,4.1904 2.5106,1.196 4.9752,2.6233 7.4258,4.1449 z m 6.7462,-15.2114 c -0.4915,-0.3092 -1.0597,-0.5702 -1.7082,-0.7823 -2.3276,-0.3233 -4.6735,-0.2546 -7.0335,0.1418 -0.003,0.006 -0.006,0.0108 -0.008,0.016 -0.7848,1.4836 -1.176,2.6792 -1.176,3.6066 0,0.7221 0.1651,1.2787 0.4748,1.6495 0.3304,0.3912 0.8447,0.577 1.5252,0.577 1.0521,0 2.7219,-0.9054 5.0095,-2.7199 0.9023,-0.7089 1.8729,-1.538 2.9166,-2.4887 z m -27.9601,29.9852 c 0.6761,0.6777 1.417,1.3142 2.2177,1.9004 3.3777,2.4726 7.483,3.5371 12.1626,3.49 3.6082,-0.2194 7.2168,-0.8691 10.8255,-1.9915 5.0171,-1.5604 9.2919,-3.7889 13.4076,-6.7718 -4.0845,-1.8261 -7.5733,-3.8048 -10.8643,-5.8331 -5.6689,2.4311 -11.3673,4.7267 -17.1805,6.554 -3.5687,1.0673 -7.101,1.9543 -10.5686,2.652 z m 39.381,-3.9391 c 0.4264,-0.3197 0.8507,-0.6477 1.2751,-0.9846 1.5296,-1.2131 3.0964,-2.4662 4.6991,-3.6725 -2.9178,-0.8643 -5.6373,-2.342 -7.5945,-4.5333 -0.0963,-0.1079 -0.1894,-0.2178 -0.2805,-0.3273 -2.8171,1.2335 -5.6297,2.4798 -8.4488,3.699 2.2293,1.4233 4.4777,2.8054 6.7685,4.045 1.1664,0.6313 2.3624,1.2267 3.5811,1.7737 z m 33.0735,-23.0304 c -1.1823,-1.3154 -2.6456,-2.4343 -4.4026,-3.3729 -0.4659,1.1276 -0.7076,2.1234 -0.7076,2.9709 0,0.6469 0.1254,1.1049 0.396,1.3334 0.2717,0.2514 0.7708,0.3752 1.5004,0.3752 0.7628,0 1.8329,-0.4331 3.2138,-1.3066 z m -9.5013,-5.3788 c -0.0691,-0.0196 -0.1374,-0.0388 -0.2069,-0.0579 -0.2905,-0.0807 -0.5822,-0.1583 -0.8739,-0.2318 -2.338,2.7643 -4.628,4.9129 -6.8465,6.4541 -2.6672,1.8553 -5.1682,2.7723 -7.481,2.7723 -2.2509,0 -4.0026,-1.1256 -5.2953,-3.3769 -0.4211,-0.7536 -0.7748,-1.6023 -1.0585,-2.5445 -4.1049,3.4899 -5.6585,9.5792 -3.396,14.2543 5.8403,-2.3392 11.7349,-4.6216 17.7163,-6.51 3.2282,-1.0185 6.3506,-1.8629 9.4573,-2.5541 -0.3604,-0.2294 -0.6796,-0.5127 -0.9598,-0.852 -0.8738,-1.0636 -1.313,-2.6056 -1.313,-4.6483 0,-0.5215 0.0428,-1.126 0.1255,-1.7929 0.0327,-0.257 0.0759,-0.5611 0.1318,-0.9123 z m -3.181,-0.7516 c -4.7135,-0.8807 -9.5089,-0.7145 -13.9495,1.0897 -0.1594,0.8938 -0.2378,1.7258 -0.2378,2.4926 0,1.1875 0.2718,2.1253 0.7912,2.8138 0.5219,0.6865 1.2719,1.0409 2.2101,1.0409 1.375,0 3.0852,-0.6864 5.149,-2.0838 1.9388,-1.2926 3.9503,-3.084 6.037,-5.3532 z M 298.8655,360.003 c -0.4675,-1.721 -1.2847,-3.3481 -2.3955,-4.8274 -1.4665,0.3249 -2.9402,0.6865 -4.4178,1.0845 -7.6421,1.5655 -15.2549,4.2296 -22.9229,7.1981 1.6966,1.0565 3.3581,2.1218 5.0447,3.1791 0.1494,-0.0776 0.2965,-0.1535 0.4403,-0.2262 2.7408,-1.3866 5.9566,-2.6544 9.6592,-3.8 4.8705,-1.6315 9.4849,-2.3396 14.592,-2.6081 z m 0.9889,-4e-4 0.0768,0.003 4e-4,10e-4 c 0.4843,0.007 0.9694,0.0223 1.4533,0.0467 2.8694,0.1455 5.7296,0.6018 8.5802,1.3962 3.5831,1.2019 7.338,2.5261 11.166,4.2368 l 2.6792,-4.2684 7.8346,-0.5826 -4.8202,7.6816 c 3.5719,1.9052 7.0003,3.4436 10.5826,4.6116 h 0.3644 l -0.0551,0.0995 c 0.4839,0.1546 0.9714,0.3037 1.4621,0.4447 2.3239,-8.3669 -3.058,-16.0476 -10.9286,-18.5391 -8.6003,-2.7223 -19.4997,-2.5637 -30.8887,-0.151 1.1165,1.5084 1.9988,3.2067 2.493,5.02 z m 0.229,0.9861 c 0.5123,2.6621 0.1998,5.4995 -1.126,8.4101 -1.0553,2.3184 -2.7452,4.4909 -4.7798,6.4341 2.6744,0.6217 5.3724,1.0113 8.1459,1.2183 -0.593,-4.0046 2.7983,-7.5961 7.7099,-8.2906 2.167,-0.2573 5.3357,-0.1218 7.4447,1.2136 0.2337,0.1482 0.4547,0.3065 0.6633,0.4751 l 2.5433,-4.0518 c -3.6322,-1.6778 -7.3079,-3.1703 -10.8562,-4.1964 -2.8599,-0.6901 -5.7393,-1.0833 -8.6358,-1.188 -0.3677,-0.0132 -0.7449,-0.0244 -1.1093,-0.0244 z m -0.991,0 h -0.0699 v -8e-4 c -4.823,0.064 -9.6947,0.9151 -14.6124,2.5114 -3.392,0.991 -6.4568,2.1534 -9.1404,3.514 -0.0875,0.0443 -0.1783,0.0915 -0.2702,0.1394 2.1414,1.3314 4.3375,2.6473 6.7059,3.9187 3.8272,2.0547 7.5345,3.496 11.2706,4.4662 2.2105,-1.8585 4.049,-4.079 5.1902,-6.7434 1.0993,-2.5649 1.347,-5.0691 0.9262,-7.8055 z m 200.7564,2.0247 c -1.2746,0.3193 -2.7359,0.2825 -4.3558,-0.0619 -3.8544,-0.8183 -7.5585,-2.7987 -11.0869,-5.1446 2.0012,-0.5315 4.288,-0.836 6.8369,-0.9259 9.6787,0.7097 11.9787,5.3604 8.5967,6.1232 0.003,0.004 0.006,0.006 0.009,0.009 z m -78.9177,21.2079 c 1.164,-0.2869 2.2596,-0.6489 3.2534,-1.078 -0.0496,-0.002 -0.0999,-0.002 -0.1523,-0.002 -0.8615,0 -1.8992,0.3592 -3.1011,1.08 z m 9.3319,-8.38 c 0.0771,-0.5922 0.0715,-1.1612 -0.0252,-1.7023 -0.7077,-3.9654 -5.6581,-5.0994 -8.9938,-4.99 -1.4505,0.048 -2.9034,0.1894 -3.9943,0.9311 -6.93,4.7111 0.6793,8.1587 13.0133,5.7612 z m 1.0133,0.3872 c -0.0579,0.3328 -0.1411,0.6689 -0.2533,1.0077 -0.4388,1.0182 -1.0266,2.0443 -1.8305,3.0796 -0.003,-0.01 -0.007,-0.0204 -0.01,-0.03 -0.5187,0.6781 -1.0949,1.2827 -1.7294,1.8209 0.2138,0.1763 0.414,0.3776 0.5994,0.6026 0.8651,1.0501 1.299,2.473 1.299,4.2875 0,1.8557 -0.3916,3.854 -1.176,5.9786 -0.7836,2.1434 -2.041,4.5976 -3.7724,7.3603 5.5462,-6.9895 9.9584,-11.9579 13.2146,-14.8437 3.2786,-2.9074 6.0209,-4.3507 8.2882,-4.3507 1.4437,0 2.6388,0.4955 3.5666,1.4845 0.9271,0.9886 1.3818,2.2265 1.3818,3.7105 0,2.1658 -0.4136,4.3511 -1.2375,6.556 -0.8244,2.1853 -2.145,4.5976 -3.9579,7.2157 6.5556,-7.463 11.3594,-12.4722 14.4098,-15.0699 1.3098,-1.1149 2.509,-1.9915 3.6014,-2.6281 -0.9901,0.1371 -1.9859,0.1842 -2.9117,0.181 -2.7412,-0.009 -5.4304,-0.4147 -8.0688,-1.2031 -4.1813,-1.2499 -8.9938,-3.6946 -12.831,-6.9356 -2.8227,0.802 -5.6561,1.3734 -8.5827,1.7762 z m 52.4605,-18.872 c -1.7362,-1.1831 -3.4284,-2.4446 -5.0735,-3.6853 -0.3528,-0.2665 -0.7044,-0.5303 -1.0573,-0.7928 6.1029,-2.9773 12.8438,-4.6707 19.6112,-3.4716 7.9453,1.4078 16.2315,5.9806 16.6303,12.499 0.3396,4.4054 -0.2929,7.9997 -1.9692,10.901 -1.5216,-0.1358 -3.0264,-0.3128 -4.5141,-0.5318 -10.6209,-1.5648 -20.8243,-5.2038 -30.9733,-9.071 0.5202,-0.8715 1.1895,-1.685 2.0167,-2.411 1.3618,-1.1956 3.0956,-2.1059 5.1686,-2.7484 3.7745,2.525 7.7228,4.7407 11.7961,5.6278 1.8013,0.3923 3.4928,0.3883 5.0156,-0.2126 4e-4,4e-4 8e-4,0.001 10e-4,0.002 2.2564,-0.6829 2.0031,-3.0345 -0.0919,-4.4913 -2.7939,-1.9396 -6.2239,-2.5957 -9.4038,-2.6413 -2.2956,-0.0328 -4.7846,0.2973 -7.1566,1.0277 z m -24.3886,7.5502 c 4.7015,2.4182 12.1522,7.5477 8.9499,13.1387 -0.6173,1.0781 -1.6646,1.9172 -3.1783,2.4974 -4.0465,0.7648 -8.2078,0.3116 -12.4494,-0.9954 -3.8979,-1.2011 -8.0968,-2.9174 -11.5719,-5.4635 3.6362,-1.1228 7.276,-2.6456 11.1016,-4.7071 2.4271,-1.3074 4.7966,-2.8422 7.1481,-4.4701 z m -21.7249,-13.6502 c 0.6361,-0.7049 1.3382,-1.3722 2.1022,-1.9927 3.2222,-2.6165 7.2341,-3.87 11.8688,-4.0474 3.5823,0.0451 7.1865,0.517 10.814,1.4585 5.0427,1.3086 9.3838,3.3161 13.6046,6.08 -3.9539,2.0087 -7.3104,4.1401 -10.4687,6.3115 -5.7308,-2.1418 -11.4844,-4.1481 -17.3288,-5.6837 -3.585,-0.8883 -7.1253,-1.5996 -10.5921,-2.1262 z m 39.1772,2.0239 c 0.4375,0.2969 0.8739,0.6022 1.3106,0.9162 1.5736,1.1312 3.1859,2.3 4.8318,3.4209 -2.8459,0.9981 -5.4655,2.5953 -7.2952,4.8641 -0.0903,0.1119 -0.1771,0.225 -0.2622,0.3384 -2.849,-1.0896 -5.6944,-2.1921 -8.5451,-3.2674 2.1374,-1.5196 4.2952,-2.9996 6.5021,-4.3398 1.1236,-0.6829 2.2784,-1.3306 3.458,-1.9324 z m 34.8301,19.938 c -2.0291,3.239 -5.4244,5.5822 -10.3037,7.2029 -6.6523,2.2093 -13.768,2.4774 -20.0903,-1.0917 -5.2085,-2.9409 -7.6792,-9.6711 -5.4595,-14.9144 5.8963,2.0422 11.8433,4.0258 17.857,5.6137 6.2036,1.6371 11.9959,2.6589 17.9965,3.1895 z m -320.0389,46.108 16.124,-24.2676 c 0.1662,-0.2501 0.4363,-0.6269 0.77,-1.1144 2.079,-3.0388 3.0795,-5.1063 3.0795,-6.1804 0,-0.547 -0.1202,-0.9322 -0.3648,-1.1563 -0.2217,-0.2226 -0.6673,-0.3229 -1.2962,-0.3229 -1.3171,0 -3.0401,0.8295 -5.1666,2.5118 -2.1482,1.6822 -5.1683,4.6208 -9.0782,8.8152 -0.8319,0.8715 -1.8241,2.0059 -2.9789,3.3829 -1.3785,1.7038 -2.2904,2.5537 -2.7351,2.5537 -0.1623,0 -0.2849,-0.0607 -0.4068,-0.1407 -0.1203,-0.1022 -0.1822,-0.2241 -0.1822,-0.3244 0,-0.3253 0.1822,-0.77 0.5686,-1.317 0.3648,-0.5475 1.1148,-1.4593 2.2285,-2.736 l 3.8504,-4.1956 c 3.8092,-4.0926 6.7274,-6.8485 8.7732,-8.3273 2.0267,-1.4589 3.8908,-2.1886 5.6138,-2.1886 1.4592,0 2.6132,0.5067 3.4648,1.5189 0.8519,0.9941 1.2766,2.3711 1.2766,4.1145 0,1.8237 -0.3848,3.788 -1.154,5.8758 -0.7716,2.1074 -2.0063,4.5193 -3.7093,7.2553 6.1604,-6.972 10.9018,-11.8345 14.2048,-14.61 1.8053,-1.5184 3.4164,-2.6197 4.8278,-3.3045 -3.3517,-1.4801 -6.3039,-3.6251 -8.311,-6.5081 -3.1915,0.4056 -6.4588,0.6797 -9.8933,0.8448 -8.4372,0.4051 -17.459,0.3816 -26.6002,0.2705 -0.7585,8.9786 -1.5157,17.9577 -2.2741,26.9363 -0.4967,5.8867 -1.4876,8.0145 1.5324,13.0176 2.5685,-0.135 5.1966,-0.2749 7.8363,-0.4035 z m 39.2722,-34.7702 c 0.5503,-0.1582 1.0617,-0.2374 1.5332,-0.2374 1.3334,0 2.3899,0.4795 3.2067,1.4569 5.8459,1.0709 11.8185,0.5391 17.0698,-2.7283 5.0563,-3.1464 7.1889,-9.8841 4.7115,-14.9309 -5.7876,2.2964 -11.6287,4.5377 -17.5561,6.3934 -6.1148,1.9132 -11.8493,3.2014 -17.8162,4.0166 1.9132,2.698 4.8349,4.6707 8.8511,6.0297 z m 5.6294,2.7451 c 0.32,0.8276 0.4839,1.7918 0.4839,2.8938 0,3.04 -2.0063,7.2948 -5.9986,12.7655 -0.6689,0.9123 -1.176,1.6011 -1.4784,2.0671 -2.2305,2.9996 -3.7302,5.2277 -4.4994,6.6666 -0.77,1.4593 -1.1548,2.6337 -1.1548,3.5455 0,0.3952 0.0496,0.7384 0.1467,1.0297 2.3915,-2.3671 5.4763,-4.1169 8.7908,-5.2952 1.0909,-0.3876 2.1758,-0.7145 3.2566,-0.977 0.9179,-0.9015 1.8845,-1.8813 2.901,-2.9426 0.9534,-0.953 2.0279,-2.1481 3.2626,-3.567 2.1074,-2.3788 4.8422,-4.8977 7.0922,-7.1993 3.9183,-3.9188 7.8375,-6.9408 11.7558,-9.0662 2.2257,-1.2131 4.3367,-2.0802 6.3434,-2.6049 -2.0331,-0.7112 -3.6666,-2.1006 -4.061,-4.6743 -0.8499,-5.5462 5.0771,-10.0799 9.6495,-12.66 -1.7353,-1.0761 -3.4647,-2.1929 -5.2029,-3.3002 -3.0688,1.2004 -6.1472,2.4423 -9.24,3.6742 3.2087,4.8949 1.9472,11.2994 -3.6986,15.4239 -5.6561,4.1321 -11.8528,5.3241 -18.3488,4.2204 z m -12.0027,29.7366 c 0.32,0.2634 0.7652,0.3908 1.3198,0.3908 1.0337,0 2.6752,-0.8906 4.9245,-2.674 1.0069,-0.7912 2.101,-1.735 3.2885,-2.833 -0.3096,0.0903 -0.6177,0.185 -0.9258,0.2837 -3.6766,1.1764 -6.5296,2.7631 -8.607,4.8325 z m 51.3457,-32.0346 c 0.2853,0.1742 0.5542,0.372 0.8055,0.5926 1.1876,1.0637 1.7914,2.4594 1.7914,4.2112 0,0.4164 -0.0412,0.8332 -0.1239,1.2927 -0.0843,0.4367 -0.2086,0.9374 -0.3752,1.4573 l 5.1474,-7.5034 8.2326,-0.4987 -13.7348,21.6131 c -1.0905,1.7198 -1.9692,3.1479 -2.6289,4.2923 2.4534,0.1099 4.8633,0.5366 7.2281,1.2675 0.3944,0.1218 0.7931,0.2537 1.1971,0.3964 1.5029,-1.3754 3.1479,-2.9929 4.9373,-4.8514 4.1341,-4.1325 7.7547,-8.6526 11.8149,-12.8522 3.7924,-3.8899 6.695,-7.1921 8.7301,-9.9045 -1.6323,-0.7324 -3.0013,-1.7453 -4.1461,-3.0764 -0.002,0.01 -0.006,0.0204 -0.008,0.03 -0.8547,-0.9786 -1.4929,-1.9588 -1.9815,-2.9381 -0.1291,-0.3277 -0.229,-0.6542 -0.3033,-0.9786 -2.943,-0.2525 -5.8012,-0.6757 -8.6606,-1.3262 -3.6714,3.3745 -8.3565,6.0137 -12.4702,7.447 -1.7841,0.6214 -3.6015,1.0653 -5.4519,1.3294 z m -1.791,27.1194 c -0.1198,0.2409 -0.2193,0.4587 -0.3012,0.6517 -0.5203,1.2099 -0.792,2.272 -0.792,3.1687 0,0.6469 0.1254,1.1048 0.396,1.3334 0.2717,0.2513 0.7708,0.3752 1.5004,0.3752 1.0845,0 2.7935,-0.8739 5.1283,-2.6464 0.5945,-0.4552 1.2191,-0.965 1.8744,-1.5276 -2.6317,-0.812 -5.2365,-1.2927 -7.8059,-1.355 z m 35.324,-28.3001 c 0.2881,-0.398 0.5559,-0.782 0.8028,-1.1524 l 3.2394,-4.841 c -3.4736,0.0739 -6.7322,0.0348 -9.8837,-0.1894 0.2522,0.9538 0.7205,1.9588 1.381,3.0101 -0.003,0.0123 -0.005,0.0239 -0.008,0.0363 0.5043,0.7524 1.2719,1.3754 2.1781,1.9656 0.6741,0.4387 1.4441,0.8299 2.2908,1.1708 z m 4.5789,-6.7954 1.4668,-2.1921 h -5.8255 l 0.9842,-1.7066 h 5.8858 l 0.9794,-1.5604 c -0.3548,-0.2773 -0.79,-0.5298 -1.3162,-0.7464 -1.2147,-0.5003 -2.5845,-0.7436 -4.0354,-0.7196 -3.3373,0.0555 -8.2254,1.4125 -8.7349,5.346 -0.0695,0.5366 -0.0468,1.0964 0.0595,1.675 3.3609,0.1926 6.8409,0.1307 10.5363,-0.0959 z m 12.4586,-7.8434 -2.4754,3.9447 h 11.2191 c -2.2465,-0.7932 -4.4674,-1.745 -6.6699,-2.8826 -0.6849,-0.3536 -1.3769,-0.7085 -2.0738,-1.0621 z m 10.9606,4.6747 -0.5411,0.9766 h -13.9395 l -6.5607,10.4747 c 0.7284,0.0492 1.4708,0.0711 2.2181,0.0631 6.9527,-0.0751 16.5911,-2.3395 19.7502,-9.2759 0.2697,-0.5918 0.4983,-1.1832 0.6885,-1.7709 -0.5399,-0.1475 -1.0785,-0.3033 -1.6155,-0.4676 z m -21.4677,12.1322 -11.0301,17.61 c -1.9088,3.0732 -3.3349,5.5231 -4.2591,7.3708 -0.9239,1.8277 -1.3866,3.1743 -1.3866,3.997 0,0.5838 0.201,1.106 0.6238,1.5871 0.4011,0.4628 0.8838,0.7033 1.446,0.7033 0.7644,0 1.612,-0.2078 2.5414,-0.6233 0.0444,-0.1699 0.0963,-0.3397 0.1554,-0.5103 0.454,-1.0197 1.0589,-2.0463 1.8821,-3.0796 0.003,0.01 0.006,0.0204 0.009,0.03 1.8676,-2.3811 4.423,-3.8592 7.841,-4.6124 0.543,-0.5479 1.1072,-1.1237 1.6922,-1.7294 4.4977,-4.5021 8.8672,-9.3411 13.1591,-14.039 4.795,-5.2665 9.278,-11.1368 13.4516,-17.634 -0.8239,-0.1738 -1.6427,-0.3648 -2.4574,-0.5782 -1.7734,5.4024 -6.6036,8.9906 -14.208,10.945 -3.6151,0.4823 -6.7486,0.6885 -9.4606,0.563 z m -10.7572,29.956 c 0.442,-0.2653 0.9007,-0.5702 1.3738,-0.9167 1.504,-1.1068 3.494,-2.8854 5.989,-5.35 -1.6599,0.5327 -3.1244,1.2315 -4.2848,2.0639 -0.8906,0.6389 -1.6399,1.3054 -2.119,2.0942 0.004,0.0124 0.006,0.024 0.01,0.0367 -0.406,0.7149 -0.732,1.405 -0.969,2.0719 z m 41.4968,1.4669 c -0.7584,-0.388 -1.4221,-0.991 -1.9951,-1.8106 -1.0897,-1.5551 -1.6227,-3.6118 -1.6227,-6.1456 0,-1.8161 0.4919,-3.7325 1.4796,-5.7276 0.9858,-1.9755 3.1224,-4.9696 6.4105,-9.0002 0.4324,-0.5386 1.0689,-1.2767 1.8697,-2.2145 2.3635,-2.8339 3.5563,-4.7303 3.5563,-5.6677 -0.0424,-0.539 -0.1646,-0.9178 -0.3916,-1.1372 -0.2254,-0.2206 -0.555,-0.3197 -0.9862,-0.3197 -1.89,0 -5.7128,2.8143 -11.4868,8.4412 -4.1253,4.0342 -8.7581,9.0838 -13.8895,15.1486 6.0245,1.8857 9.9892,5.1143 11.7142,9.8114 1.7605,-0.5418 3.5407,-0.9973 5.3416,-1.3781 z m -30.5302,-0.1795 -0.2685,0.0224 0.0204,-0.0316 c -3.5032,-0.0911 -6.8081,-0.0471 -9.9908,0.2098 -0.4044,0.2382 -0.7988,0.4484 -1.1836,0.629 -0.0236,0.4068 -0.004,0.8035 0.0603,1.1855 0.6686,3.9971 5.6502,5.1882 9.0171,5.1119 1.4636,-0.0336 2.835,-0.3364 4.0401,-0.8959 4.1189,-1.912 2.5318,-5.9082 -0.9022,-6.2083 -0.173,-0.006 -0.3457,-0.0116 -0.5179,-0.0168 -0.0911,0.002 -0.1826,0.006 -0.2761,0.0136 8e-4,-0.006 8e-4,-0.0132 0.001,-0.0196 z m 0.2901,-0.8411 5.1019,-7.8894 c -0.6258,-0.0151 -1.2367,-0.0128 -1.8281,0.004 -1.3778,0.0396 -2.7308,0.177 -4.021,0.4032 -3.8268,3.8592 -6.7254,6.4745 -8.7141,7.8454 -0.0224,0.0156 -0.0456,0.0304 -0.068,0.0456 3.0253,-0.2629 6.174,-0.378 9.5293,-0.4088 z m 5.5095,-8.5195 11.5975,-17.9333 c -5.7428,5.9961 -11.2631,12.1457 -16.9879,18.0843 1.6311,-0.1666 3.4232,-0.2125 5.3904,-0.151 z m -23.7701,10.2082 c -0.5462,-0.3201 -1.0413,-0.7341 -1.4852,-1.2443 -1.1844,-1.3662 -1.7882,-3.2143 -1.7882,-5.5243 0,-3.0532 2.7927,-8.7768 8.3557,-17.1741 0.6238,-0.9838 1.1065,-1.727 1.407,-2.2493 -2.1897,2.2093 -4.4802,4.6392 -6.8501,7.3312 -2.9006,3.2938 -5.6129,6.6874 -8.7145,9.823 -1.3862,1.4257 -2.6588,2.6932 -3.8168,3.804 3.3653,1.4113 6.8704,3.4696 9.7974,5.9886 1.0297,-0.2805 2.059,-0.5319 3.0947,-0.7548 z m -14.2707,-3.9359 c -1.8692,1.725 -3.3825,2.9637 -4.5381,3.7145 -2.1042,1.3554 -4.0633,2.0427 -5.8974,2.0427 -1.6679,0 -2.9394,-0.5211 -3.8156,-1.5832 -0.8739,-1.0637 -1.3131,-2.6057 -1.3131,-4.6483 0,-0.1914 0.004,-0.3952 0.016,-0.6078 -0.8531,0.5027 -1.4912,1.128 -1.9268,1.868 -3.295,5.5926 4.1633,10.8292 8.8792,13.3102 2.3911,-1.6143 4.7994,-3.134 7.2628,-4.425 3.8831,-2.0347 7.5729,-3.5299 11.2543,-4.6228 -2.9809,-2.2265 -6.5069,-3.8456 -9.9213,-5.0483 z m -15.338,-2.9773 c 0.0919,-0.5954 0.2206,-1.3418 0.3796,-2.2489 -2.8343,3.6258 -5.607,6.357 -8.2758,8.211 -0.3001,0.209 -0.5994,0.4048 -0.8951,0.5898 2.1598,3.5615 2.2313,7.7408 0.1359,11.2719 3.1667,1.1348 6.3194,2.2804 9.4605,3.3841 1.7087,-1.2 3.4085,-2.4095 5.1155,-3.5779 -4.7111,-2.4527 -10.8651,-6.8465 -10.2265,-12.5445 0.3152,-2.8147 2.099,-4.3171 4.3059,-5.0855 z m -10.3756,7.4394 c -1.751,0.8651 -3.4196,1.2951 -5.0016,1.2951 -2.2508,0 -4.0026,-1.1257 -5.2953,-3.3769 -0.8323,-1.4881 -1.3981,-3.3453 -1.6882,-5.5678 -2.9821,-0.4859 -6.0369,-0.3604 -9.0542,0.2162 -2.4223,2.3735 -4.5117,4.2188 -6.2583,5.5246 -2.2484,1.683 -3.9722,2.513 -5.1666,2.513 -0.9322,0 -1.7665,-0.2266 -2.5042,-0.6789 -0.1994,0.2645 -0.3872,0.5366 -0.5662,0.8143 6.0477,0.5946 11.88,1.6819 18.1203,3.3921 6.0489,1.6587 12.0263,3.7149 17.9513,5.8295 1.3778,-3.1479 1.0605,-6.8516 -0.537,-9.9612 z m -12.1314,-9.1013 c -0.0551,-0.7504 -0.0823,-1.536 -0.0823,-2.3592 0,-0.9793 0.0616,-1.9587 0.2078,-2.9173 0.1459,-0.9806 0.3345,-1.9388 0.5834,-2.877 -1.8025,2.0407 -5.0907,5.2637 -6.7362,6.9364 l -0.7092,0.7096 c -0.1523,0.1563 -0.3045,0.3093 -0.4548,0.4615 2.4343,-0.3408 4.835,-0.3372 7.1913,0.046 z m -23.5586,8.4851 c -0.356,-0.3204 -0.6849,-0.7036 -0.9886,-1.1508 -1.0745,-1.5795 -1.6011,-3.6669 -1.6011,-6.2406 0,-1.8433 0.4863,-3.7893 1.4581,-5.8156 0.9726,-2.0063 3.0808,-5.0463 6.3234,-9.1189 0.4243,-0.5674 1.0525,-1.3162 1.8441,-2.2684 2.3283,-2.8782 3.5047,-4.8034 3.5047,-5.756 0,-0.5067 -0.1023,-0.8715 -0.3041,-1.0537 -0.1826,-0.2026 -0.547,-0.3029 -1.0549,-0.3029 -1.9036,0 -5.6585,2.8314 -11.2646,8.4891 -5.5878,5.6386 -12.6441,14.447 -20.348,24.1932 4.0058,-0.1386 7.9133,-0.2173 11.5427,-0.1842 3.4692,0.0312 6.7742,0.1814 10.0076,0.4683 0.2741,-0.4343 0.5674,-0.8547 0.8807,-1.2595 z m 154.8606,-14.5616 c 5.5902,-1.2347 10.4064,-3.643 14.4062,-7.2448 3.999,-3.5807 6.0097,-6.9728 6.0097,-10.1143 0,-0.6901 -0.2097,-1.2779 -0.6485,-1.7793 -0.4203,-0.4827 -0.9422,-0.7333 -1.5508,-0.7333 -2.7423,0 -5.9661,1.9264 -9.6323,5.7576 -3.6842,3.854 -6.554,8.5443 -8.5843,14.1141 z m -126.1321,10.3668 c 0,1.1876 0.2717,2.1254 0.7911,2.8139 0.5219,0.6865 1.2719,1.0409 2.2101,1.0409 0.8388,0 1.8013,-0.2561 2.893,-0.7724 -0.9874,-1.3482 -2.246,-2.513 -3.7333,-3.3709 -0.6857,-0.3956 -1.383,-0.7464 -2.0874,-1.0545 -0.0496,0.4675 -0.0735,0.9155 -0.0735,1.343 z m 7.3607,2.2804 c 0.2573,-0.1582 0.5206,-0.3272 0.7896,-0.5094 2.063,-1.3754 4.2092,-3.3146 6.4392,-5.7944 3.3769,-3.7101 6.0026,-7.316 7.8579,-10.8387 1.8552,-3.5207 2.7723,-6.5652 2.7723,-9.1277 0,-1.0845 -0.3952,-2.0223 -1.1892,-2.7723 -0.7912,-0.7504 -1.7705,-1.1256 -2.8962,-1.1256 -2.0426,0 -4.2519,0.8759 -6.6702,2.6472 -2.3967,1.7706 -4.7718,4.2728 -7.1278,7.4822 -2.2924,3.2095 -4.0853,6.4401 -5.3764,9.6496 -0.8215,2.0087 -1.3829,3.82 -1.6878,5.4315 1.3781,0.6046 2.7379,1.3578 4.0741,2.268 1.1824,0.8056 2.1873,1.7123 3.0145,2.6896 z m -24.164,13.657 c 1.2894,-0.3081 2.7635,-0.2565 4.3942,0.1067 3.8791,0.8627 7.5933,2.8926 11.126,5.2889 -2.0251,0.5143 -4.3351,0.7972 -6.908,0.8619 -9.7566,-0.8124 -12.0239,-5.5151 -8.603,-6.2479 -0.003,-0.004 -0.006,-0.006 -0.009,-0.01 z m 16.1903,5.8555 c 1.7382,1.208 3.4312,2.4946 5.0767,3.7593 0.3528,0.2717 0.7045,0.5406 1.0573,0.8084 -6.1911,2.9333 -13.0112,4.5688 -19.8253,3.2933 -7.9993,-1.4972 -16.307,-6.1819 -16.6351,-12.7443 -0.2917,-4.4358 0.3872,-8.0452 2.1118,-10.9474 1.5332,0.1522 3.0496,0.3456 4.5481,0.581 10.6976,1.6822 20.9501,5.4471 31.1451,9.4414 -0.535,0.8715 -1.2195,1.683 -2.0623,2.4051 -1.3877,1.1891 -3.1475,2.087 -5.2461,2.7123 -3.7792,-2.5789 -7.7371,-4.8477 -11.8365,-5.7819 -1.8133,-0.4132 -3.5195,-0.4264 -5.0627,0.163 -4e-4,-4e-4 -8e-4,-10e-4 -0.001,-0.002 -2.2844,0.6641 -2.0558,3.0324 0.0412,4.5193 2.7967,1.9799 6.2499,2.6748 9.4569,2.7531 2.316,0.0568 4.831,-0.2501 7.2321,-0.961 z m 46.4544,6.6063 c -0.6501,0.7029 -1.3662,1.367 -2.1442,1.9836 -3.281,2.5997 -7.3423,3.82 -12.0203,3.9514 -3.6138,-0.0819 -7.2448,-0.5937 -10.8938,-1.5775 -5.0727,-1.3682 -9.4294,-3.432 -13.6562,-6.2555 4.0122,-1.9807 7.4231,-4.0909 10.6345,-6.2435 5.7572,2.2133 11.5392,4.2899 17.4179,5.8943 3.6066,0.9306 7.1701,1.6822 10.6621,2.2472 z m -39.5029,-2.4346 c -0.4379,-0.3033 -0.8746,-0.615 -1.3118,-0.9355 -1.5743,-1.154 -3.1879,-2.3463 -4.8357,-3.4907 2.8829,-0.975 5.5442,-2.5554 7.4162,-4.8198 0.0919,-0.1115 0.181,-0.2246 0.2681,-0.3372 2.8623,1.1252 5.7201,2.2632 8.5835,3.374 -2.1733,1.5069 -4.3674,2.9741 -6.6091,4.3 -1.1416,0.6756 -2.3144,1.3158 -3.5112,1.9092 z M 233.273,367.9167 c 1.2887,0.2514 2.7464,0.1439 4.3475,-0.2741 3.8088,-0.9934 7.4099,-3.1215 10.8171,-5.6009 -2.0251,-0.4244 -4.3239,-0.6118 -6.8744,-0.5754 -9.6316,1.1711 -11.6974,5.8562 -8.2818,6.4408 -0.003,0.004 -0.006,0.006 -0.008,0.01 z m 15.8108,-6.3506 c 1.6754,-1.2483 3.3029,-2.5713 4.8841,-3.8715 0.3392,-0.2793 0.6773,-0.5558 1.0165,-0.8312 -6.2435,-2.6284 -13.0604,-3.9638 -19.7598,-2.4534 -7.8654,1.773 -15.9142,6.6742 -15.9885,13.1028 -0.1199,4.3478 0.6904,7.8506 2.5089,10.6213 1.5129,-0.2082 3.0073,-0.4559 4.4822,-0.744 10.5302,-2.0583 20.5402,-6.1352 30.4846,-10.4344 -0.563,-0.8311 -1.2719,-1.5983 -2.1342,-2.2716 -1.4197,-1.1088 -3.1966,-1.9188 -5.2989,-2.4491 -3.6446,2.6673 -7.4778,5.0388 -11.502,6.1105 -1.7797,0.4739 -3.4692,0.5526 -5.0199,0.0363 -4e-4,4e-4 -8e-4,10e-4 -0.001,0.002 -2.2877,-0.561 -2.1518,-2.8854 -0.1315,-4.4202 2.694,-2.0438 6.0873,-2.8566 9.2608,-3.0572 2.2912,-0.1446 4.7938,0.058 7.1989,0.6601 z m 24.7346,6.2296 c -4.5757,2.6076 -11.7622,8.0156 -8.2858,13.356 0.6701,1.0298 1.7582,1.8034 3.2986,2.2996 4.0797,0.5539 8.2134,-0.0951 12.3847,-1.5879 3.8336,-1.3718 7.9421,-3.2646 11.2862,-5.9378 -3.6874,-0.9263 -7.3987,-2.2453 -11.3222,-4.0846 -2.489,-1.1667 -4.9321,-2.5597 -7.3615,-4.0453 z m 21.0197,-14.4838 c -0.6705,-0.6621 -1.405,-1.2838 -2.1989,-1.8564 -3.3485,-2.4147 -7.4175,-3.4508 -12.0555,-3.3985 -3.5758,0.2198 -7.1521,0.8603 -10.7284,1.9632 -4.9716,1.5336 -9.2076,3.7197 -13.2858,6.6439 4.049,1.7813 7.5074,3.7125 10.77,5.6928 5.6174,-2.3863 11.2643,-4.6403 17.0251,-6.4361 3.5363,-1.0489 7.0371,-1.9216 10.4735,-2.6089 z m -39.029,3.9072 c -0.4223,0.3132 -0.8427,0.6349 -1.2634,0.965 -1.5153,1.1891 -3.0676,2.4175 -4.656,3.5998 2.8922,0.8419 5.5882,2.284 7.5286,4.4254 0.0955,0.1055 0.1878,0.2126 0.2785,0.3197 2.7915,-1.2108 5.5786,-2.4339 8.3721,-3.6306 -2.2101,-1.3894 -4.439,-2.7388 -6.7099,-3.9487 -1.1564,-0.6162 -2.3419,-1.1968 -3.5499,-1.7306 z m -149.1853,93.8266 c 6.0569,-2.6556 12.1645,-6.7402 18.0572,-10.5714 2.0798,-1.3522 4.1329,-2.6872 6.1008,-3.9135 5.8627,-3.653 12.5318,-6.9444 18.428,-9.367 5.1199,-2.1034 9.6703,-3.5551 12.6237,-4.0242 1.8612,-5.627 3.2901,-12.3835 4.1984,-20.5103 h -37.4778 l -13.3524,13.8844 c 0.4263,-0.0184 0.8519,-0.0304 1.2786,-0.0356 6.9056,-0.0863 12.9497,1.5336 15.2933,4.9073 3.3237,-1.6619 6.6479,-3.4704 9.972,-5.1327 -0.3912,1.1732 -0.7824,2.3464 -1.1732,3.5196 -7.4302,3.5195 -14.8605,7.039 -22.2904,10.5586 -9.0697,-8.9715 -24.4069,-4.1277 -33.4259,2.4654 -5.5374,4.0486 -13.8668,14.56 -4.5593,19.6807 3.3985,1.8696 8.6147,1.8668 15.0907,1.4349 3.9215,-0.2617 7.6085,-1.3059 11.2363,-2.8962 z"
     style="fill:#1b1918;fill-rule:evenodd"
     id="path2" />
</svg>
