<?xml version="1.0" encoding="UTF-8"?>
<!DOCTYPE svg PUBLIC "-//W3C//DTD SVG 1.1//EN" "http://www.w3.org/Graphics/SVG/1.1/DTD/svg11.dtd">
<!-- Creator: CorelDRAW X6 -->
<svg xmlns="http://www.w3.org/2000/svg" xml:space="preserve" width="640px" height="320px" version="1.1" style="shape-rendering:geometricPrecision; text-rendering:geometricPrecision; image-rendering:optimizeQuality; fill-rule:evenodd; clip-rule:evenodd"
viewBox="0 0 64000 32000"
 xmlns:xlink="http://www.w3.org/1999/xlink">
 <defs>
  <style type="text/css">
   <![CDATA[
    .fil1 {fill:none}
    .fil3 {fill:black}
    .fil2 {fill:#0088FF}
    .fil12 {fill:#333333}
    .fil11 {fill:#37322B}
    .fil14 {fill:#373937}
    .fil8 {fill:#664400}
    .fil13 {fill:#695336}
    .fil5 {fill:#6E491D}
    .fil7 {fill:#880000}
    .fil6 {fill:#BBBBBB}
    .fil0 {fill:#DD8855}
    .fil9 {fill:#FF7777}
    .fil10 {fill:white}
    .fil4 {fill:#FF4800}
   ]]>
  </style>
 </defs>
 <g id="Layer_x0020_1">
  <metadata id="CorelCorpID_0Corel-Layer"/>
  <polygon class="fil0" points="7538,17029 7301,17160 7374,16934 7285,16947 7209,16937 7736,16734 7631,16888 "/>
  <polygon class="fil0" points="5049,16982 4957,17039 4863,17071 4759,17058 4540,17157 4502,17060 4796,16844 5030,16687 5097,16642 5212,16547 5251,16515 5215,16513 5031,16508 5001,16484 4665,16214 4496,16078 4667,16151 4697,16173 4968,16376 4980,16368 5106,16282 5315,16139 5353,16113 5392,16349 5621,16334 5880,16401 6058,16492 6131,16541 5383,16781 5358,16790 5177,16902 "/>
  <polygon class="fil0" points="16192,23896 16588,23875 16817,23830 16024,23858 "/>
  <polygon class="fil0" points="6176,24659 6131,24715 6293,25035 "/>
  <polygon class="fil0" points="3829,26429 3782,26347 3740,26245 3696,26147 3924,25927 4003,25984 4042,26040 4097,25953 4179,25877 4193,25949 4192,26306 3852,26433 4135,26495 4119,26708 4229,26863 4265,26801 4592,26738 4751,26383 5173,26823 5323,26474 5336,26689 5736,26681 5730,26373 5561,26300 5369,25890 5248,25475 5518,25575 5959,26338 6018,25637 6022,25323 6068,25035 5678,24975 5316,24814 4905,24933 4653,24781 4542,24739 5071,23440 4998,22667 5234,23003 5775,23886 5989,24232 5530,24686 5045,24729 4542,24739 3808,25174 3800,25178 3806,25183 3692,25781 "/>
  <polygon class="fil0" points="6906,24709 6448,23561 5926,22584 5530,21845 5380,21206 5308,20904 5264,19865 5330,19785 5443,19639 5381,20275 6057,20686 5911,20127 6041,20255 6111,20425 6157,20852 6166,20923 6213,20973 6541,21242 6796,21383 7084,21451 7129,21780 7776,22464 6231,21591 6284,21671 6779,23118 7021,23565 6729,23305 6830,23989 6867,24364 "/>
  <polygon class="fil0" points="6795,25151 6952,25021 6924,25930 7009,25819 7041,25682 7148,24638 6906,24709 "/>
  <polygon class="fil0" points="6551,26129 6729,25848 6682,25604 "/>
  <polygon class="fil0" points="12129,21690 12378,21610 12559,21235 12136,20681 12260,20889 11672,21058 "/>
  <polygon class="fil0" points="10918,21307 10879,21490 9808,22352 10231,22161 10408,22018 10623,21913 11432,21768 11314,21515 11167,21202 10960,21262 10932,21291 "/>
  <polygon class="fil0" points="11186,20322 11089,20553 10939,20716 11404,20688 11562,20507 11459,20257 "/>
  <polygon class="fil0" points="17381,19551 17279,20041 17296,20565 17194,20736 17085,20891 17018,20948 16948,21591 17629,20996 18253,20310 18311,19996 18305,19930 18291,19905 18270,19885 18145,19957 18348,19375 17951,19231 17777,19733 17840,19256 17631,18858 17463,19145 "/>
  <polygon class="fil0" points="4920,19246 5064,19470 5073,19626 5073,19626 5264,19865 5154,19433 4956,19148 4821,19146 4806,19144 "/>
  <polygon class="fil0" points="16141,21346 16576,21501 16616,21982 16816,21547 16820,20982 16773,21039 16616,21139 16541,21006 16267,20637 16424,20873 16475,21147 16383,21088 16314,21012 16172,20893 15852,20680 "/>
  <polygon class="fil0" points="15960,22024 15889,21900 15687,21834 15646,22091 15575,22310 15693,22763 15860,22255 "/>
  <polygon class="fil0" points="24341,21408 23417,21334 23513,21446 23938,21688 24538,21982 24692,21885 24729,21917 24811,21975 24288,21435 "/>
  <polygon class="fil0" points="14149,22650 14011,22096 13569,21892 13176,22438 13214,22640 13150,22855 13368,23066 13370,23066 13424,22593 13584,23137 14165,23329 14141,22769 14154,22650 "/>
  <polygon class="fil0" points="16645,17520 16797,17644 17318,17735 17656,17843 17994,17918 18199,18695 18324,19265 18470,19322 18536,18795 18650,18240 18847,19543 18357,20535 18295,20579 17100,21745 16869,22228 17761,21825 18442,21184 18445,21177 18636,20908 18807,20550 19199,19344 19311,19473 19326,19496 19343,19520 18537,17831 17666,17456 "/>
  <polygon class="fil0" points="19804,21282 20738,21869 20893,22041 21172,22329 21114,21993 20956,21662 20860,21455 20735,21253 20835,21229 20835,21195 20261,21258 19772,21114 "/>
  <polygon class="fil0" points="15187,22034 15187,21983 15223,20047 15079,20024 15080,21290 15040,21269 14998,21202 14703,20816 14605,21132 14477,22284 14465,22273 14459,22336 14440,23119 14589,23148 14646,23488 14743,23520 15106,23065 "/>
  <polygon class="fil0" points="9095,23496 8987,23554 8855,23623 8656,23908 8527,24142 8375,24345 8464,24353 8298,24617 8145,24862 7744,25226 8038,25282 7881,25443 7483,25901 7841,26079 7823,26244 8220,25915 7973,26577 7515,27025 7520,26885 7490,26923 7476,26943 7424,27041 7379,27166 7507,27169 7525,27170 7557,27175 7910,26884 8012,27372 7832,27509 7718,27681 7488,27277 7271,27353 7678,27800 8028,27536 8084,27686 8353,27503 8382,27508 8584,27101 8754,26638 8940,26785 8680,27455 8601,27475 8345,27849 8294,27760 8279,28027 8452,27879 8564,27719 8710,27603 8777,27498 8824,27457 8955,27332 9187,27337 9383,27009 9643,26832 9851,27067 10055,26772 10210,26434 10453,25678 10687,25446 10620,25624 10628,25617 10654,25535 12422,23879 11967,22909 11787,22526 11508,21930 9416,22919 9207,22545 9096,21881 8993,22702 "/>
  <polygon class="fil0" points="12871,22586 12718,21974 12410,21907 12287,21905 12605,22328 "/>
  <polygon class="fil0" points="10071,19536 10072,19537 10473,19846 10487,19856 10482,19896 10436,20256 10330,20275 10550,20509 10609,20545 11146,20022 11176,20061 11355,19919 11804,19348 12272,18345 12318,17837 11779,17966 11679,18555 11627,18323 11603,18208 11489,17886 11373,17549 11199,17063 10912,16406 10774,16168 10678,15931 11340,16008 11314,15777 11163,15667 11145,15647 11448,15625 11647,15303 11737,14851 11658,14819 11632,15089 11535,15283 11189,15491 11235,14977 11388,14452 11350,14486 11327,14503 11301,14520 11216,14678 10732,15022 10493,15505 10097,15392 10107,15204 10023,15029 9489,14514 9727,14471 9641,14353 9033,14098 8929,14123 9061,14285 8274,14047 8035,13942 8277,13861 7957,13741 7968,13688 6850,13929 4878,14296 5588,14402 5674,14468 5216,14597 5238,14788 4753,14582 4353,14277 4618,15187 4604,15515 4354,15881 4364,15971 4293,16067 4390,16270 4432,16477 4420,16704 4285,17119 4385,17490 4430,17549 4433,17510 4945,17262 4934,17388 4925,17486 4914,17608 4681,18023 4503,17953 4479,18019 4745,18298 4889,18649 5212,18679 5139,18611 5227,18562 5201,18386 5206,18376 5234,18350 5258,18278 5232,18092 5561,18041 5858,18106 5878,17996 5707,17675 5647,17433 6084,17749 6170,17489 6410,17316 6836,16917 6855,17006 6854,17054 7060,16945 7127,17318 7538,17029 7830,16799 7888,16763 7832,16728 7798,16702 7763,16673 7935,16642 8026,16647 8016,16627 8372,16562 8969,16395 8904,16480 8836,16528 8694,16589 8778,16730 8367,16582 8842,16968 9442,17188 9648,16987 9617,16699 9569,16357 10076,16327 10106,16391 10119,16470 10127,16655 10198,16663 10215,16944 10268,16939 10377,16561 10508,16545 10543,16520 10593,16485 10760,16584 10795,17118 10778,17131 10676,18272 10331,18337 10348,18649 10390,19564 10229,19344 10122,19363 9523,19648 9506,19729 9323,19744 8941,19927 9006,20061 9097,20291 9303,20785 9872,20390 10126,20267 10019,19928 9996,19854 10024,19612 10036,19509 "/>
  <polygon class="fil0" points="5578,16928 5996,16970 6395,17083 6343,17121 6120,17234 "/>
  <polyline class="fil1" points="8157,15922 8191,16021 7960,16088 7889,16164 7796,16201 7329,16270 6579,16580 6603,16496 6679,16312 6835,16093 "/>
  <polygon class="fil2" points="10654,25535 10063,27459 11784,25855 12444,25436 12907,26025 11518,28770 12078,28638 12704,27210 13426,27617 14624,29801 14314,28252 14369,26296 15882,26864 16863,27742 17542,28972 18128,29440 17737,28290 17131,26727 19790,26026 20859,26650 23003,27172 24762,27442 25715,26959 21892,26254 19831,25561 17324,25569 16519,25030 18201,24175 21105,23930 23134,23190 20721,23563 16904,24058 15204,23672 13368,23066 12605,22328 12221,21817 11404,20688 10939,20716 12422,23879 "/>
  <polygon class="fil2" points="5073,19626 4636,20902 3766,21941 2412,22497 1735,22739 1687,23150 2267,23126 3790,22449 4273,22014 3911,22836 3282,23658 2606,24044 2171,24334 1880,24938 2050,25253 2219,24914 2992,24383 3427,24093 3065,25011 2847,25760 2340,26509 2243,27065 2291,28129 2654,29071 3089,28854 3016,27645 3137,26050 3800,25178 4542,24739 5071,23440 4998,22667 5234,23003 5775,23886 6098,24409 6293,25035 6086,25933 6008,26857 5820,27694 6013,28467 7101,29265 7826,29192 7318,28636 6690,27935 6497,26993 6551,26129 6906,24709 6448,23561 5530,21845 5308,20904 5264,19865 "/>
  <polygon class="fil3" points="13188,15977 13106,16017 12826,16042 12548,16096 13191,16265 13726,16542 13210,16172 13823,16331 14312,16688 15194,17870 15333,18139 15433,18895 15778,19780 15834,19928 15920,20072 16123,19686 16816,20608 16820,20982 16816,21547 16616,21982 16576,21501 16141,21346 15852,20680 16172,20893 16314,21012 16383,21088 16475,21147 16424,20873 16267,20637 15977,20422 15839,20348 15658,20770 15478,20312 15195,18591 14232,16883 14333,17087 14489,17368 14539,17417 15151,18885 15146,19565 15411,20737 15187,21983 15187,22034 15106,23065 15063,23612 15528,23395 15509,21754 15629,21489 15889,21900 15960,22024 16244,22422 16178,22444 16033,23057 15940,23839 16024,23858 16817,23830 18098,23701 19261,23472 19494,22833 19228,22837 19020,22824 19720,22259 19716,22217 19204,22217 19457,21839 19681,21571 19760,21458 18807,21942 17857,22428 16616,22655 17325,22405 17927,22020 18798,21416 19400,20541 18949,21056 19291,20130 19176,20194 18636,20908 18445,21177 18442,21184 17761,21825 16869,22228 17100,21745 18295,20579 18357,20535 18847,19543 18650,18240 18536,18795 18470,19322 18311,19996 18253,20310 17629,20996 16948,21591 17018,20948 17027,19373 17028,19339 16100,19400 16044,18615 15070,16955 15512,17983 15958,19033 15749,19106 15513,18672 15249,17923 15198,17829 15140,17716 14595,16897 13868,16297 13464,15974 "/>
  <path class="fil4" d="M23906 21836l139 482 -1293 6 -30 -291 -62 -291 -259 -507 876 211 628 391zm-2195 692l854 -92 2775 -52 -9 -604 -990 -372 -53 28 523 540 -82 -59 -36 -32 -154 97 -600 -294 -426 -242 -96 -112 -242 -51 -522 -74 -610 3 -1208 -17 0 34 488 114 140 151 334 517 20 266 58 209 -163 43z"/>
  <polygon class="fil4" points="5561,26300 5730,26373 5736,26681 5336,26689 5323,26474 5173,26823 4751,26383 4592,26738 4265,26801 4229,26863 4501,27047 4646,26936 5240,26930 5305,26747 5485,26825 5822,26371 6022,26568 6039,26403 6056,26288 6086,25933 6293,25035 6131,24715 6176,24659 6098,24409 5989,24232 5530,24686 5045,24729 4542,24739 4653,24781 4905,24933 5316,24814 5678,24975 6068,25035 6022,25323 6018,25637 5959,26338 5518,25575 5248,25475 5369,25890 "/>
  <polygon class="fil3" points="24045,22319 23906,21836 23277,21446 22402,21235 22660,21742 22722,22033 22752,22325 "/>
  <polygon class="fil3" points="15788,17267 16199,18139 17283,18255 17860,18827 18045,18705 17808,17974 16732,17806 16433,18068 16117,17640 "/>
  <polygon class="fil3" points="14154,22650 14141,22769 14210,23024 14265,23315 14326,23243 14459,22336 14465,22273 14471,20304 14439,19695 14392,19838 14344,20420 14281,21155 "/>
  <polygon class="fil4" points="7473,23640 7701,24366 7998,23212 8191,23258 8065,22584 7978,22991 7880,22949 7424,22533 6766,22006 6921,22252 7068,22481 7984,23460 8008,23641 8003,23729 7968,23844 7488,23244 7798,24044 "/>
  <polygon class="fil3" points="8065,22584 8191,23258 7998,23212 7701,24366 7473,23640 7319,23343 7046,23096 7197,23472 7139,24598 7419,24565 7849,24459 8056,24485 8199,24324 8656,23908 8855,23623 8926,23450 8742,22838 8548,22008 8374,22882 7874,22119 7564,21899 7703,22078 "/>
  <polygon class="fil3" points="20956,21662 21331,22002 21625,22393 21522,22529 21711,22528 21873,22485 21816,22277 21796,22011 21462,21494 21322,21343 20835,21229 20735,21253 20860,21455 "/>
  <polygon class="fil4" points="8729,25679 8522,25730 8878,25874 8682,26212 8607,26623 8809,26397 9055,26210 9361,26767 9613,26435 9311,26145 9553,26178 9205,25858 9245,25761 9012,25736 8752,25513 "/>
  <path class="fil3" d="M11039 20930l-623 458 -934 735 614 -360 632 -378 397 -271 -86 -184zm479 -84l265 -181 293 -292 -301 169 -372 146 114 158z"/>
  <polygon class="fil3" points="20039,21767 20183,21858 20499,22225 20738,22639 21056,22594 20920,22441 20650,21900 "/>
  <path class="fil4" d="M19845 21630l65 77 129 60 611 132 270 541 137 154 -318 45 -239 -415 -316 -367 232 538 -13 322 -289 -185 -20 -337 -186 -220 20 213 -64 -53 -79 -95 -68 176 4 42 -230 1128 2221 -858 -189 0 103 -136 -294 -391 -375 -339 158 331 58 336 -279 -288 -155 -172 -935 -587 42 348zm-12115 6425l650 286 815 -136 17 -26 35 -69 -119 -411 -372 474 -197 -99 -82 -167 -26 -28 -174 148 15 -267 88 -251 -29 -6 -269 183 -56 -150 -350 264 -407 -446 217 -76 68 -102 -32 -5 -17 -1 -129 -3 45 -125 52 -99 14 -19 30 -38 168 -298 -475 287 -79 -696 177 -633 -81 22 -229 1452 253 615 476 422zm-1198 -1646l390 -479 29 -909 -157 130 -113 452 47 244 -179 281 -18 281z"/>
  <polygon class="fil5" points="19261,23472 19490,23387 19720,22259 19020,22824 19228,22837 19494,22833 "/>
  <polygon class="fil0" points="7494,21406 7756,21764 8068,22031 7936,21641 7861,21130 "/>
  <polygon class="fil6" points="9383,27009 9390,27470 9647,27293 9851,27067 9643,26832 "/>
  <polygon class="fil4" points="3740,26245 3782,26347 3829,26429 3852,26433 4192,26306 4193,25949 4179,25877 4097,25953 4042,26040 4003,25984 3924,25927 3696,26147 "/>
  <polygon class="fil3" points="4968,16376 5353,16113 5392,16349 5621,16334 5880,16401 6058,16492 6131,16541 5358,16790 4957,17039 4863,17071 4759,17058 4540,17157 4502,17060 4796,16844 5097,16642 5251,16515 5031,16508 4496,16078 4667,16151 "/>
  <polygon class="fil2" points="4103,19077 3684,19462 3771,19857 4070,19881 4173,19417 "/>
  <polygon class="fil2" points="3779,17433 3215,17356 2967,17674 3139,17921 3562,17704 "/>
  <polygon class="fil2" points="3701,18400 3144,18520 3019,18903 3265,19076 3588,18729 "/>
  <polygon class="fil2" points="3241,19636 2790,19984 2841,20384 3137,20435 3280,19982 "/>
  <polygon class="fil2" points="8331,17134 8844,17383 8875,17785 8595,17895 8363,17481 "/>
  <polygon class="fil2" points="9173,18949 9592,19335 9506,19729 9206,19754 9103,19290 "/>
  <polygon class="fil2" points="9497,17305 10061,17229 10310,17547 10137,17793 9715,17576 "/>
  <polygon class="fil2" points="9576,18272 10132,18392 10258,18776 10012,18949 9688,18601 "/>
  <polygon class="fil2" points="10036,19509 10487,19856 10436,20256 10139,20307 9996,19854 "/>
  <path class="fil7" d="M7236 20274l-65 505 -773 13 19 -193 14 -121 -160 -129 -49 -209 327 -122 252 -242 240 -496 7 -20 175 -101 -133 572 145 544zm-292 -1491l35 247 -14 213 -214 425 -370 252 216 -667 -6 -627 -169 32 -29 281 -97 0 -43 789 -30 70 -84 415 -87 -226 -63 -88 -24 -78 -140 134 -382 -444 -205 212 -70 -450 -348 -126 136 1 197 286 111 432 66 -80 113 -147 -63 636 677 411 -146 -559 130 128 70 170 46 427 9 71 47 50 -8 -115 391 -13 394 13 410 -471 -178 -868 143 -489 -270 83 -165 -780 13 450z"/>
  <polygon class="fil3" points="12872,19168 12913,17582 13219,20755 13273,20672 13469,19068 13532,19056 12812,16734 12779,17720 "/>
  <polygon class="fil2" points="4059,16200 4024,16458 4222,16475 4228,16592 4089,16657 4094,17170 4168,17189 4229,17226 4005,17991 4118,18033 4139,18040 4268,18749 4546,19282 4920,19246 4806,19144 4604,18882 4410,18533 4631,18230 4776,18500 4704,18834 4969,18748 5319,18770 5212,18679 4889,18649 4745,18298 4479,18019 4503,17953 4681,18023 4914,17608 4945,17262 4433,17510 4401,17912 4430,17549 4385,17490 4285,17119 4420,16704 4432,16477 4390,16270 4293,16067 4364,15971 4354,15881 "/>
  <path class="fil4" d="M9154 21520l149 -605 563 -281 -379 407 -333 479zm2650 -2171l-448 571 -179 142 -30 -39 -538 523 -58 -36 -221 -235 -66 11 -125 21 -13 -40 -255 123 -569 395 -206 -494 -340 100 -38 491 -82 5 -176 -9 -157 84 -60 349 18 423 91 376 38 330 -275 -80 -242 -241 500 763 174 -874 194 830 183 612 -71 174 133 -70 108 -58 -102 -794 103 -821 990 -819 93 211 135 -299 140 179 484 -438 150 -163 97 -231 246 -240 83 -144 491 -686 -203 96z"/>
  <polygon class="fil3" points="13842,21188 13860,21168 13948,20951 13862,17750 13347,16970 13701,17782 13842,18832 "/>
  <polygon class="fil3" points="9033,14098 9624,14334 9829,14470 9968,14648 10058,14879 10203,14757 10580,14804 10587,14825 10609,14924 10943,14869 11216,14678 11301,14520 11303,14296 11177,14400 10568,14521 9730,14279 8372,13745 8436,13790 8653,13952 "/>
  <polygon class="fil3" points="7359,15703 6896,15751 7018,15957 6835,16093 6679,16312 6603,16496 6579,16580 7329,16270 7796,16201 7889,16164 7960,16088 8191,16021 8157,15922 7793,15948 7433,15988 7233,15991 7396,15844 7526,15169 7442,15336 "/>
  <polygon class="fil8" points="4806,19144 4821,19146 5168,19273 5238,19723 5443,19511 5826,19955 5966,19821 5990,19899 6053,19987 6016,19615 5995,19619 5975,19625 5821,19833 5534,19488 5482,19426 5443,19378 5293,19595 5192,19220 5127,18860 5537,19344 5589,19352 5869,19381 5934,19403 5771,18996 5695,18776 5598,18585 5501,18101 5821,18265 6432,18243 6094,18173 5878,17996 5858,18106 5561,18041 5232,18092 5258,18278 5234,18350 5206,18376 5201,18386 5227,18562 5139,18611 5212,18679 5319,18770 4969,18748 4704,18834 4776,18500 4631,18230 4410,18533 4604,18882 "/>
  <polygon class="fil9" points="6417,20599 6511,20391 6349,20221 6419,20268 6868,20288 6952,20226 7012,20273 7069,20320 7053,20266 7052,20202 7069,20156 7192,20246 7236,20274 7091,19730 7224,19159 7049,19260 7041,19280 6801,19776 6549,20017 6222,20139 6271,20349 6431,20478 "/>
  <polygon class="fil10" points="6417,20599 6398,20792 7171,20779 7236,20274 7192,20246 7069,20156 7052,20202 7053,20266 7069,20320 7012,20273 6952,20226 6868,20288 6419,20268 6349,20221 6511,20391 "/>
  <polygon class="fil11" points="9617,16699 9633,16716 10076,16327 9710,16096 9569,16357 "/>
  <polygon class="fil3" points="11658,14819 11553,14631 11388,14452 11235,14977 11189,15491 11535,15283 11632,15089 "/>
  <polygon class="fil3" points="4353,14277 4753,14582 5238,14788 5216,14597 5674,14468 5588,14402 4878,14296 4553,14214 "/>
  <polygon class="fil3" points="11603,18208 11627,18323 11697,18356 11957,16978 11735,17163 11427,17315 11575,17705 "/>
  <polygon class="fil12" points="9589,17866 9593,17739 9127,17398 8846,17412 8862,17622 9052,17708 9445,17985 "/>
  <polygon class="fil12" points="9201,18950 9570,18446 "/>
  <polygon class="fil12" points="10453,25678 10210,26434 10055,26772 9851,27067 9647,27293 9390,27470 9383,27009 9187,27337 8955,27332 8824,27457 8777,27498 8710,27603 8564,27719 8452,27879 8478,27907 8560,28074 8757,28173 9129,27699 9248,28110 9213,28179 9195,28205 9680,28055 9945,27707 10064,27458 10628,25617 10620,25624 10687,25446 "/>
  <polygon class="fil12" points="8199,24324 8056,24485 7849,24459 7419,24565 7404,24603 7717,24556 7230,25567 7311,25545 7135,26177 7214,26874 7689,26587 7520,26885 7515,27025 7973,26577 8220,25915 7823,26244 7841,26079 7483,25901 7881,25443 8038,25282 7744,25226 8145,24862 8298,24617 8464,24353 8375,24345 8527,24142 8656,23908 "/>
  <polygon class="fil12" points="7557,27175 7488,27277 7718,27681 7832,27509 8012,27372 7910,26884 "/>
  <polygon class="fil12" points="10102,18111 10325,17576 10215,16944 10198,16663 10127,16655 10119,16470 10106,16391 10076,16327 9633,16716 9617,16699 9648,16987 9442,17188 8842,16968 8367,16582 8778,16730 8694,16589 8836,16528 8904,16480 8969,16395 8372,16562 7763,16673 7798,16702 7832,16728 7888,16763 7830,16799 7538,17029 7127,17318 7060,16945 6854,17054 6760,17263 6575,17518 6285,17786 6203,18037 7013,18122 7339,17991 7617,17808 7350,17786 7923,17399 7970,17232 8316,17024 8229,16853 8316,16821 8380,16900 8388,16928 8392,16946 8432,17048 9396,17286 9536,17300 9962,17242 10061,17229 10310,17547 10137,17793 9909,17676 9746,17592 9739,17647 9738,18092 9720,18220 8856,17792 8595,17895 8470,17673 8221,17628 8521,17922 8735,18325 8896,18734 9093,19150 9136,19132 9173,18949 9300,19066 9896,18824 9688,18601 9576,18272 10027,18370 "/>
  <polygon class="fil12" points="8382,27508 8294,27760 8345,27849 8601,27475 8680,27455 8940,26785 8754,26638 8584,27101 "/>
  <polygon class="fil3" points="8802,14552 8935,14828 8288,14471 7857,14440 8151,14542 8426,14703 8506,14660 8933,15044 9078,15373 8885,15696 8986,15646 8789,15893 8912,15978 9093,15972 9576,15699 9553,15557 9432,15300 9199,15122 9148,15306 9131,14941 9270,14934 9267,14694 9536,14823 9639,14790 9489,14602 9254,14507 8723,14355 "/>
  <polygon class="fil3" points="5578,16928 6120,17234 6343,17121 6395,17083 5996,16970 "/>
  <polygon class="fil3" points="9154,21520 9487,21041 9866,20634 9303,20915 "/>
  <polygon class="fil13" points="10268,16939 10359,17015 10358,16941 10570,16896 10574,16792 10609,16715 10723,17115 10778,17131 10795,17118 10760,16584 10593,16485 10543,16520 10508,16545 10377,16561 "/>
  <polygon class="fil14" points="9201,18950 9570,18446 "/>
  <polygon class="fil8" points="11216,14678 10943,14869 10609,14924 10587,14825 10580,14804 10203,14757 10058,14879 9968,14648 9829,14470 9624,14334 9641,14353 9727,14471 9489,14514 10023,15029 10107,15204 10097,15392 10493,15505 10732,15022 "/>
  <polygon class="fil8" points="18636,20908 19176,20194 19291,20130 18949,21056 19400,20541 18798,21416 17927,22020 17325,22405 16616,22655 17857,22428 18807,21942 19760,21458 19681,21571 19457,21839 19204,22217 19716,22217 19784,22040 19863,22135 19927,22188 19907,21975 20093,22195 20113,22532 20402,22718 20415,22396 20183,21858 20039,21767 19910,21707 19845,21630 19804,21282 19772,21114 19562,20287 19343,19520 19326,19496 19311,19473 19199,19344 18807,20550 "/>
  <polygon class="fil8" points="13424,22593 13370,23066 13584,23137 "/>
  <polygon class="fil8" points="14646,23488 14589,23148 14440,23119 14459,22336 14326,23243 14265,23315 14210,23024 14141,22769 14165,23329 "/>
  <polygon class="fil8" points="15106,23065 14743,23520 15204,23672 15940,23839 16033,23057 16178,22444 16244,22422 15960,22024 15860,22255 15693,22763 15575,22310 15646,22091 15687,21834 15889,21900 15629,21489 15509,21754 15528,23395 15063,23612 "/>
  <polygon class="fil8" points="10939,20716 10455,21154 10314,20975 10179,21274 10087,21063 9096,21881 9207,22545 9416,22919 11508,21930 11432,21768 10623,21913 10408,22018 10231,22161 9808,22352 10879,21490 10918,21307 10932,21291 10960,21262 11167,21202 11126,21114 10729,21385 10097,21763 9482,22123 10416,21388 11039,20930 "/>
  <polygon class="fil8" points="7494,21406 7861,21130 7936,21641 8068,22031 7756,21764 "/>
  <polygon class="fil8" points="15788,17267 16117,17640 16433,18068 16732,17806 17808,17974 18045,18705 17860,18827 17283,18255 16199,18139 "/>
  <polygon class="fil8" points="7968,13688 7957,13741 8277,13861 8035,13942 8274,14047 9061,14285 8929,14123 9033,14098 8653,13952 8436,13790 8372,13745 9730,14279 10568,14521 11177,14400 11303,14296 11301,14520 11327,14503 11350,14486 11388,14452 11553,14631 11658,14819 11737,14851 11647,15303 11448,15625 11145,15647 11163,15667 11314,15777 11340,16008 10678,15931 10774,16168 10912,16406 11199,17063 11373,17549 11489,17886 11603,18208 11575,17705 11427,17315 11735,17163 11957,16978 11697,18356 11627,18323 11679,18555 11779,17966 12318,17837 12272,18345 11804,19348 12006,19252 11516,19938 11432,20082 11186,20322 11459,20257 11562,20507 11404,20688 11776,20542 12077,20373 11784,20665 11519,20846 11672,21058 12260,20889 12136,20681 12559,21235 12378,21610 12129,21690 12221,21817 12287,21905 12410,21907 12718,21974 12871,22586 13150,22855 13214,22640 13176,22438 13569,21892 14011,22096 14149,22650 14154,22650 14281,21155 14344,20420 14392,19838 14439,19695 14471,20304 14465,22273 14477,22284 14605,21132 14703,20816 14998,21202 15040,21269 15080,21290 15079,20024 15223,20047 15187,21983 15411,20737 15146,19565 15151,18885 14539,17417 15195,18591 15478,20312 15658,20770 15839,20348 15977,20422 16267,20637 16541,21006 16616,21139 16773,21039 16820,20982 16816,20608 16723,20108 16472,20354 16560,20268 16511,20203 16581,19936 16413,20072 16123,19686 15920,20072 15834,19928 15778,19780 15433,18895 15337,18173 15513,18672 15749,19106 15958,19033 15512,17983 15070,16955 16044,18615 16100,19400 17028,19339 17018,20948 17085,20891 17194,20736 17296,20565 17279,20041 17381,19551 17463,19145 17631,18858 17840,19256 17777,19733 17951,19231 18348,19375 18145,19957 18270,19885 18291,19905 18305,19930 18311,19996 18470,19322 18324,19265 18199,18695 17994,17918 17656,17843 17318,17735 16797,17644 16645,17520 13464,15974 13868,16297 14595,16897 15140,17716 15198,17829 15249,17923 15309,18093 15194,17870 14312,16688 13823,16331 13210,16172 13726,16542 13191,16265 12548,16096 12826,16042 13106,16017 13188,15977 12242,15653 11845,14856 11305,14205 10709,13993 "/>
  <polygon class="fil8" points="8462,20878 8637,20887 8719,20882 8757,20391 8496,20415 7984,20785 7451,21140 7134,21207 6797,21203 6868,21165 7226,21116 7012,21029 6857,20895 7034,20925 6990,20858 6596,20845 6205,20858 6213,20973 6541,21242 6796,21383 7084,21451 7129,21780 7776,22464 6231,21591 6284,21671 6779,23118 7021,23565 6729,23305 6830,23989 6867,24364 6906,24709 7148,24638 7404,24603 7419,24565 7139,24598 7197,23472 7046,23096 7319,23343 7473,23640 7798,24044 7488,23244 7968,23844 8003,23729 8008,23641 7984,23460 7068,22481 6921,22252 6766,22006 7424,22533 7880,22949 7978,22991 8065,22584 7703,22078 7564,21899 7874,22119 8117,22361 8391,22441 8354,22111 8263,21734 8245,21311 8304,20962 "/>
  <polygon class="fil8" points="7359,15703 7442,15336 7526,15169 7396,15844 7233,15991 7433,15988 7536,15837 7574,15574 7509,15099 7214,14558 7463,14490 8017,14369 8157,14393 8288,14471 8935,14828 8802,14552 8718,14506 8588,14409 8551,14385 8498,14353 8306,14294 7706,14093 7530,14180 7262,14168 7280,14186 7357,14242 7449,14297 6836,14401 6952,14587 6747,14637 6654,14670 6443,15073 6518,15632 6538,15641 6812,15772 6835,16093 7018,15957 6896,15751 "/>
  <polygon class="fil8" points="7538,17029 7631,16888 7736,16734 7209,16937 7285,16947 7374,16934 7301,17160 "/>
  <path class="fil4" d="M7923 17399l-572 387 266 22 -278 183 -326 132 -810 -86 82 -251 -124 103 -29 220 385 61 403 14 280 -1 239 -72 209 72 29 -141 265 169 125 312 103 -52 107 147 -328 -826 717 913 -413 -814 459 766 -15 1038 2 83 22 75 219 -201 197 -202 -35 -160 32 -157 -42 17 -197 -415 -161 -409 -214 -404 -300 -293 249 44 -107 -192 -32 -346 512 248 2 29 281 -13 466 341 -4 127 -144 119 -393 -277 -190 -86 13 163 -19 7 864 427 18 -128 1 -444 7 -55 -32 -16 -218 -271 39 -5 -140 -14 -964 -238 -40 -102 -4 -18 -8 -28 -64 -79 -87 32 87 171 -346 208 -47 167zm1489 1770l152 -156 87 152 147 -139 98 -203 -596 242 112 103z"/>
  <polygon class="fil3" points="11828,15916 11986,15883 11629,15490 "/>
  <polygon class="fil10" points="6604,18540 6959,18465 7049,19260 6841,19254 "/>
  <path class="fil3" d="M7034 20925l-177 -29 155 133 214 87 -358 49 -71 38 337 3 317 -67 532 -355 512 -369 261 -24 340 -100 -91 -230 -65 -135 382 -182 -117 10 -67 -304 -197 202 -219 201 -22 -75 -2 -83 15 -1038 -459 -766 413 814 -717 -913 328 826 -107 -147 -103 52 -125 -312 -265 -169 -29 141 -209 -72 -239 72 -280 1 -73 30 45 265 66 -14 0 0 137 648 270 -83 -143 489 178 868 -410 471 44 66zm3689 -3810l-114 -400 -35 77 -3 105 -213 45 2 74 -91 -77 -53 6 110 632 -223 535 -75 259 105 23 0 0 125 383 -246 173 -116 -124 -98 203 -147 139 -87 -152 -152 156 180 165 -68 313 599 -286 106 -19 161 221 -42 -915 -17 -312 344 -64 103 -1141 -55 -16z"/>
  <polygon class="fil9" points="6223,19798 6253,19728 6296,18940 6393,18940 6422,18658 6591,18626 6597,19253 6381,19920 6751,19668 6957,19257 6841,19254 6604,18540 6163,18528 "/>
  <polygon class="fil3" points="5647,17433 5707,17675 5878,17996 6094,18173 6432,18243 5821,18265 5501,18101 5598,18585 5695,18776 5771,18996 5934,19403 5869,19381 5589,19352 5537,19344 5127,18860 5192,19220 5293,19595 5443,19378 5482,19426 5534,19488 5821,19833 5975,19625 5995,19619 6016,19615 6053,19987 6140,20213 6223,19798 6163,18528 6604,18540 6892,18480 6847,18214 6920,18184 6517,18170 6132,18109 6161,17888 6285,17786 6575,17518 6760,17263 6854,17054 6855,17006 6836,16917 6410,17316 6170,17489 6084,17749 "/>
 </g>
</svg>
