<?xml version="1.0" encoding="UTF-8"?>
<!DOCTYPE svg PUBLIC "-//W3C//DTD SVG 1.1//EN" "http://www.w3.org/Graphics/SVG/1.1/DTD/svg11.dtd">
<!-- Creator: CorelDRAW X6 -->
<svg xmlns="http://www.w3.org/2000/svg" xml:space="preserve" width="640px" height="320px" version="1.1" style="shape-rendering:geometricPrecision; text-rendering:geometricPrecision; image-rendering:optimizeQuality; fill-rule:evenodd; clip-rule:evenodd"
viewBox="0 0 64000 32000"
 xmlns:xlink="http://www.w3.org/1999/xlink">
 <defs>
  <style type="text/css">
   <![CDATA[
    .fil1 {fill:none}
    .fil3 {fill:black}
    .fil4 {fill:#664400}
    .fil7 {fill:#880000}
    .fil2 {fill:#AAFFEE}
    .fil0 {fill:#DD8855}
    .fil6 {fill:#FF7777}
    .fil5 {fill:white}
   ]]>
  </style>
 </defs>
 <g id="Layer_x0020_1">
  <metadata id="CorelCorpID_0Corel-Layer"/>
  <polygon class="fil0" points="12746,22648 12592,22036 12284,21970 12162,21967 12480,22391 "/>
  <polygon class="fil0" points="13299,22656 13304,22673 13459,23200 "/>
  <polygon class="fil0" points="15835,22086 15764,21962 15504,21552 15384,21817 15403,23457 14938,23674 14981,23127 15062,22096 15062,22046 15098,20109 14953,20087 14955,21352 14915,21331 14873,21264 14578,20879 14480,21195 14353,22336 14340,22336 14201,23306 14140,23378 14085,23087 14016,22831 14029,22713 13886,22159 13444,21954 13051,22501 13081,22660 13089,22702 13025,22918 13243,23128 13245,23129 13459,23200 14040,23391 14521,23550 14618,23582 15079,23735 15815,23902 15908,23120 16053,22507 16119,22485 "/>
  <polygon class="fil0" points="16016,21408 16451,21564 16491,22045 16691,21609 16695,21044 16648,21101 16491,21201 16416,21068 16299,20935 16350,21210 16258,21151 16189,21074 16047,20956 15727,20742 "/>
  <polygon class="fil0" points="12004,21753 12026,21746 12253,21672 12434,21298 12135,20951 11627,21097 11547,21120 "/>
  <polygon class="fil0" points="3704,26492 3657,26409 3615,26308 3571,26210 3799,25990 3632,26151 "/>
  <polygon class="fil0" points="6168,25098 6051,24722 5973,24472 5863,24295 5650,23948 5109,23066 4873,22729 4946,23503 4417,24802 3683,25236 3675,25241 3681,25246 3567,25844 3704,26492 3727,26495 4010,26558 3994,26771 4104,26926 4376,27109 4520,26999 5115,26993 5180,26810 5359,26887 5464,26747 5897,26631 5914,26465 5931,26351 5961,25996 "/>
  <polygon class="fil0" points="11091,14740 10737,14991 10606,15084 "/>
  <line class="fil1" x1="13089" y1="22702" x2="13051" y2= "22501" />
  <line class="fil1" x1="12746" y1="22648" x2="13025" y2= "22918" />
  <polyline class="fil1" points="12253,21672 12004,21753 12095,21879 12162,21967 "/>
  <polyline class="fil1" points="11394,20909 11547,21120 12135,20951 "/>
  <line class="fil1" x1="14351" y1="22346" x2="14480" y2= "21195" />
  <polygon class="fil0" points="15663,17330 16074,18202 17158,18318 17735,18890 17920,18768 17683,18036 16607,17869 16308,18131 15992,17703 "/>
  <polygon class="fil0" points="19218,19583 18412,17894 17541,17519 16520,17583 13338,16037 14470,16960 15015,17778 15124,17985 15128,17997 15132,18009 15136,18021 15140,18032 15144,18044 15149,18056 15153,18067 15157,18079 15161,18091 15165,18103 15169,18114 15173,18126 15178,18138 15182,18149 15186,18161 15190,18173 15194,18184 15198,18196 15202,18208 15206,18219 15210,18231 15215,18243 15219,18255 15223,18266 15227,18278 15231,18290 15235,18301 15239,18313 15243,18325 15248,18336 15252,18348 15256,18360 15260,18371 15264,18383 15268,18395 15272,18406 15276,18418 15281,18430 15285,18442 15289,18453 15293,18465 15297,18477 15301,18488 15305,18500 15309,18512 15313,18523 15318,18535 15322,18547 15326,18559 15330,18570 15334,18582 15338,18594 15342,18606 15347,18617 15351,18629 15355,18641 15359,18653 15363,18664 15367,18676 15371,18688 15375,18700 15380,18711 15384,18723 15388,18735 15624,19168 15833,19095 15386,18046 14945,17018 15346,17701 15280,17504 15532,17765 15919,18678 15975,19462 16903,19402 16893,21010 16823,21653 17503,21059 18128,20373 18186,20059 18345,19385 18411,18858 18525,18303 18722,19606 18232,20598 16975,21807 16744,22291 17636,21888 18317,21247 18320,21239 18511,20971 19051,20256 19166,20193 18824,21118 19493,20449 "/>
  <polygon class="fil0" points="21667,22582 22440,22499 23238,22484 23238,22384 22627,22387 22597,22096 22535,21804 22276,21297 23152,21508 23781,21899 23920,22381 23238,22384 23238,22484 25215,22446 25649,22264 25206,21843 24216,21471 23292,21397 23050,21346 22527,21272 21918,21275 20710,21258 20136,21321 19647,21177 19537,20742 18673,21478 17802,22083 17199,22467 16491,22717 17732,22491 18682,22004 19635,21520 19556,21634 19332,21902 19079,22280 19591,22279 19595,22322 18895,22886 19103,22899 19368,22896 19191,23386 20792,22854 20792,22676 20613,22702 20374,22287 20058,21921 19914,21830 20525,21962 20795,22503 20931,22657 20792,22676 20792,22854 21671,22587 21667,22569 21397,22591 21500,22456 21206,22064 20831,21725 20735,21518 20610,21315 20710,21292 21197,21406 21337,21556 21671,22074 21691,22339 21748,22548 21667,22569 "/>
  <polygon class="fil2" points="4948,19688 4511,20965 3641,22004 2287,22560 1610,22802 1562,23213 2142,23188 3665,22512 4148,22077 3786,22898 3157,23720 2480,24107 2045,24397 1755,25001 1925,25315 2094,24977 2867,24445 3302,24155 2940,25074 2722,25823 2215,26572 2118,27128 2166,28191 2529,29134 2964,28916 2891,27708 3012,26113 3675,25241 4417,24802 4946,23503 4873,22729 5109,23066 5650,23948 5973,24472 6168,25098 5961,25996 5883,26919 5695,27756 5888,28530 6976,29327 7701,29255 7193,28699 6565,27998 6372,27055 6426,26191 6781,24772 6323,23623 5405,21907 5183,20967 5139,19928 "/>
  <polygon class="fil2" points="3978,19139 3559,19525 3645,19919 3945,19944 4048,19480 "/>
  <polygon class="fil2" points="3654,17495 3090,17419 2841,17737 3014,17983 3437,17766 "/>
  <polygon class="fil2" points="3576,18462 3019,18583 2894,18966 3139,19139 3463,18791 "/>
  <polygon class="fil2" points="3116,19699 2665,20046 2716,20447 3012,20498 3155,20045 "/>
  <polygon class="fil2" points="3934,16263 3899,16521 4097,16538 4103,16655 3964,16720 3969,17232 4042,17252 4104,17289 3880,18053 3993,18095 4014,18103 4142,18812 4421,19345 4794,19309 4681,19207 4479,18944 4285,18595 4506,18292 4650,18562 4579,18896 4844,18811 5194,18833 5086,18742 4764,18711 4620,18361 4354,18082 4378,18015 4556,18085 4788,17671 4820,17325 4308,17573 4276,17975 4305,17612 4260,17553 4160,17182 4295,16767 4307,16539 4264,16332 4168,16129 4239,16033 4229,15944 "/>
  <polygon class="fil2" points="8206,17197 8718,17445 8750,17847 8470,17958 8238,17543 "/>
  <polygon class="fil2" points="9048,19012 9467,19398 9381,19792 9081,19816 8978,19353 "/>
  <polygon class="fil2" points="9372,17368 9936,17291 10185,17609 10012,17856 9590,17639 "/>
  <polygon class="fil2" points="9450,18335 10007,18455 10133,18838 9887,19012 9563,18664 "/>
  <polygon class="fil2" points="9769,19461 9770,19462 10171,19770 10184,19781 10179,19820 10133,20181 10028,20199 9962,20210 9837,20232 9824,20191 9717,19852 9694,19779 9722,19536 9733,19433 "/>
  <polygon class="fil3" points="9076,19013 9445,18509 "/>
  <polygon class="fil3" points="9076,19013 9445,18509 "/>
  <polygon class="fil3" points="23920,22381 23781,21899 23152,21508 22276,21297 22535,21804 22597,22096 22627,22387 "/>
  <polygon class="fil3" points="15663,17330 16074,18202 17158,18318 17735,18890 17920,18768 17683,18036 16607,17869 16308,18131 15992,17703 "/>
  <polygon class="fil3" points="14029,22713 14016,22831 14085,23087 14140,23378 14201,23306 14334,22398 14340,22336 14444,20366 14490,18668 14271,18978 14219,20482 14156,21218 "/>
  <polygon class="fil3" points="7940,22646 8066,23320 7873,23274 7576,24428 7348,23702 7194,23405 6921,23159 7072,23534 7014,24661 7294,24627 7724,24521 7931,24548 8074,24386 8531,23971 8730,23686 8801,23513 8617,22901 8423,22071 8249,22945 7749,22182 7438,21961 7578,22140 "/>
  <polygon class="fil3" points="20831,21725 21206,22064 21500,22456 21397,22591 21586,22591 21748,22548 21691,22339 21671,22074 21337,21556 21197,21406 20710,21292 20610,21315 20735,21518 "/>
  <polygon class="fil3" points="11394,20909 11659,20728 11952,20435 11651,20604 11279,20750 "/>
  <polygon class="fil3" points="19914,21830 20058,21921 20374,22287 20613,22702 20931,22657 20795,22503 20525,21962 "/>
  <polygon class="fil3" points="4843,16439 5227,16176 5267,16412 5495,16397 5755,16464 5933,16554 6006,16603 5233,16852 4832,17102 4738,17134 4634,17121 4414,17220 4377,17123 4671,16906 4972,16704 5126,16577 4906,16571 4371,16140 4542,16213 "/>
  <polygon class="fil3" points="12732,20293 12788,17644 13094,20817 13148,20735 13344,19130 13310,18776 12984,17615 12789,16255 12423,16158 12747,16717 12654,17783 12522,20295 "/>
  <polygon class="fil3" points="13717,21251 13735,21230 13823,21014 13978,19625 13948,17805 13222,17032 13576,17845 13717,18894 "/>
  <polygon class="fil3" points="8908,14161 9499,14397 9704,14533 9843,14711 9933,14941 10078,14820 10455,14867 10462,14887 10484,14987 10818,14932 11091,14740 11176,14583 11178,14358 11052,14463 10443,14583 9605,14342 8247,13808 8310,13853 8528,14015 "/>
  <polygon class="fil3" points="7234,15765 6771,15814 6893,16019 6709,16156 6554,16375 6478,16559 6454,16643 7204,16333 7671,16264 7764,16227 7834,16150 8066,16083 8032,15985 7668,16010 7308,16051 7108,16054 7271,15907 7401,15232 7317,15399 "/>
  <polygon class="fil3" points="11533,14882 11428,14694 11263,14515 11110,15040 11064,15553 11410,15346 11506,15151 "/>
  <polygon class="fil3" points="4228,14340 4628,14645 5113,14851 5091,14660 5549,14530 5462,14465 4753,14358 4428,14277 "/>
  <polygon class="fil3" points="11478,18270 11554,18618 11832,17041 11302,17378 11450,17768 "/>
  <polygon class="fil3" points="8677,14615 8810,14891 8162,14533 7732,14503 8026,14604 8301,14765 8381,14723 8808,15107 8953,15435 8760,15759 8861,15709 8664,15955 8787,16041 8968,16035 9451,15761 9428,15620 9307,15363 9074,15185 9023,15368 9006,15003 9145,14997 9142,14756 9411,14886 9514,14852 9364,14665 9129,14569 8598,14417 "/>
  <polygon class="fil3" points="5452,16991 5995,17297 6218,17184 6270,17145 5870,17033 "/>
  <polygon class="fil3" points="10598,17178 10484,16777 10449,16854 10445,16959 10232,17004 10234,17078 10143,17001 10090,17007 10200,17638 9977,18174 9902,18432 10007,18455 10007,18455 10133,18838 9887,19012 9771,18887 9673,19090 9526,19228 9439,19076 9287,19232 9467,19398 9398,19711 9997,19425 10104,19406 10265,19627 10223,18712 10206,18399 10550,18335 10653,17194 "/>
  <polygon class="fil3" points="5522,17495 5582,17738 5753,18059 5969,18235 6307,18306 5696,18327 5376,18164 5473,18648 5569,18838 5646,19059 5809,19465 5744,19443 5464,19415 5412,19406 5002,18923 5066,19273 5156,19288 5211,19595 5318,19440 5357,19488 5409,19551 5696,19895 5850,19687 5870,19682 5891,19678 5928,20049 6015,20275 6098,19860 5996,19317 5788,19322 5878,18528 6194,18595 6479,18603 6767,18542 6834,18528 6834,18528 7027,18471 7088,19086 7326,18944 7199,19597 7275,20450 6865,20921 6909,20987 6732,20958 6887,21092 7101,21179 6743,21228 6672,21266 7009,21269 7326,21203 7859,20847 8371,20478 8632,20454 8972,20354 8880,20124 8816,19989 9198,19807 9081,19816 9014,19512 8816,19715 8598,19916 8575,19841 8573,19758 8541,18768 7825,17855 8153,18681 8046,18534 7943,18586 7818,18274 7553,18105 7524,18246 7315,18174 7076,18246 6795,18247 6392,18232 6007,18171 6036,17951 6160,17848 6450,17581 6635,17326 6729,17116 6730,17069 6711,16980 6285,17379 6045,17552 5959,17811 "/>
  <polygon class="fil3" points="9464,17929 9468,17802 9002,17461 8721,17474 8737,17684 8927,17771 9320,18048 "/>
  <polygon class="fil3" points="13063,16039 12980,16079 12701,16105 12423,16158 13066,16328 13601,16605 13085,16235 13658,16479 14117,16813 14998,17929 15122,18252 15308,18957 15653,19843 15709,19991 15794,20135 15998,19749 16691,20671 16695,21044 16691,21609 16491,22045 16451,21564 16016,21408 15727,20742 16047,20956 16189,21074 16258,21151 16350,21210 16299,20935 16142,20699 15852,20485 15714,20410 15533,20832 15353,20375 15070,18654 14107,16946 14114,17130 14384,17532 15026,18948 15021,19628 15286,20800 15062,22046 15062,22096 14981,23127 14938,23674 15403,23457 15384,21817 15504,21552 15764,21962 15835,22086 16119,22485 16053,22507 15908,23120 15815,23902 15899,23921 16692,23893 17973,23763 19191,23386 19368,22896 19103,22899 18895,22886 19595,22322 19591,22279 19079,22280 19332,21902 19556,21634 19635,21520 18682,22004 17732,22491 16491,22717 17199,22467 17802,22083 18673,21478 19537,20742 19493,20449 18824,21118 19166,20193 19051,20256 18511,20971 18320,21239 18317,21247 17636,21888 16744,22291 16975,21807 18232,20598 18722,19606 18525,18303 18411,18858 18345,19385 18186,20059 18128,20373 17503,21059 16823,21653 16893,21010 16902,19436 16903,19402 15975,19462 15919,18678 14945,17018 15386,18046 15833,19095 15624,19168 15388,18735 15124,17985 15073,17892 15015,17778 14470,16960 13338,16037 "/>
  <polygon class="fil2" points="10529,25598 9938,27521 10165,27733 10834,25893 11612,24808 12475,24607 12626,25994 11393,28832 11953,28701 12579,27273 13301,27680 14499,29863 14188,28314 14244,26359 15757,26927 16738,27805 17417,29035 18003,29503 17611,28353 17006,26790 19664,26089 21109,26557 22971,26922 24362,27171 25590,27022 21767,26316 19706,25624 17199,25631 16394,25092 18076,24238 20980,23992 23009,23253 20891,23410 19008,23442 17973,23763 16692,23893 15899,23921 15815,23902 15079,23735 13243,23128 12480,22391 12095,21879 11279,20750 10334,19755 10329,20224 11432,22683 11304,24215 "/>
  <!--<path class="fil0" d="M12147 18407l46 -507 -540 128 -100 590 -51 -232 -24 -115 -115 -322 -116 -337 -175 -485 -287 -658 -138 -237 -96 -238 662 77 -26 -231 -151 -110 -18 -19 302 -22 -259 -135 46 -513 -19 -300 -273 191 -334 55 -22 -99 -7 -21 -377 -47 -144 121 -60 -154 -411 0 52 65 -103 33 -269 -129 3 240 -139 6 17 365 51 -184 233 178 121 257 23 141 -483 274 -181 6 -123 -85 197 -246 -101 50 193 -324 -145 -329 -427 -384 -80 42 -275 -161 -295 -101 431 30 648 358 -134 -276 -79 -197 531 152 235 95 98 123 411 0 -30 -77 -139 -178 -205 -136 -591 -236 -70 16 -34 8 132 163 -787 -238 -240 -105 -1185 -13 -1972 367 710 107 87 65 -458 130 21 191 -485 -206 -400 -305 266 909 -15 329 -250 366 10 90 -71 96 96 203 42 207 -11 227 -136 415 100 371 45 59 3 -39 512 -248 -11 126 -9 98 -11 122 -232 414 -178 -70 -24 67 266 279 144 350 323 31 108 91 -350 -22 -265 86 71 -334 -145 -270 -221 303 194 349 202 262 114 102 144 223 201 396 -34 -308 -38 -337 -66 -360 410 484 52 8 280 29 65 22 -163 -406 -76 -221 -96 -190 -97 -484 319 164 356 -13 256 -9 -339 -71 -215 -176 -171 -321 -61 -242 437 316 86 -260 224 -162 -109 -176 -165 84 -543 -306 239 24 -34 -300 -425 137 -400 250 -95 32 -103 -13 -220 99 -38 -97 294 -216 300 -202 154 -127 -220 -7 -535 -430 172 73 301 225 384 -263 40 236 228 -15 260 67 178 90 73 49 -348 112 34 300 179 18 400 112 -110 68 109 176 391 -362 0 -470 -207 86 24 -84 77 -184 155 -219 184 -136 -123 -206 463 -49 84 -366 83 -167 -129 675 -163 147 200 -3 360 -41 364 -25 34 98 -231 67 -70 77 -93 37 -467 69 -544 225 0 470 51 -47 19 89 -1 47 206 -109 66 373 412 -289 291 -230 58 -36 -56 -35 -34 -25 -36 -29 172 -31 82 -15 953 -232 -65 85 -68 49 -142 61 84 141 64 238 232 85 206 75 162 60 206 -201 -31 -289 -48 -342 507 -30 30 64 13 79 9 185 71 8 17 281 53 -6 91 77 -2 -74 213 -45 3 -105 35 -77 114 400 55 16 -103 1141 -344 64 17 312 42 915 -161 -221 -106 19 -169 81 357 275 -51 400 -296 51 -143 -453 25 -221 -321 153 -201 96 -382 182 156 365 -340 100 -261 24 -512 369 -532 355 -317 67 -337 -3 71 -38 358 -49 -214 -87 -155 -133 -261 -50 -391 13 8 115 -47 -50 -109 -237 -542 -329 -241 -420 34 967 71 302 150 638 396 739 523 977 458 1148 -111 442 -113 452 -131 525 -18 281 390 -479 86 -111 32 -137c83,-811 111,-1024 118,-1086l-20 2 58 -1127 -151 -375 273 246 154 297 228 726 86 -335 2 -9 78 -304 130 -507 194 46 -126 -674 -362 -506 -139 -179 311 221 500 763 174 -874 194 830 183 612 -71 174 -199 285 -129 234 -152 203 90 8 -166 264 -153 246 -401 364 294 56 -157 161 -398 458 358 177 -18 166 397 -330 -248 662 -457 448 5 -140 168 -298 -475 287 79 -492 -136 -100 -155 737 253 615 476 422 650 286 815 -136 17 -26 35 -69 -119 -411 -372 474 -197 -99 -82 -167 -26 -28 111 -160 146 -116 67 -105 47 -41 131 -125 232 5 196 -328 7 461 257 -177 204 -226 204 -295 155 -338 242 -756 201 -143 776 -1382 128 -1532 -1103 -2459 5 -469 945 996 158 -181 -104 -250 -273 65 246 -240 83 -144 491 -686 266 -908z"/> -->
  <path class="fil4" d="M7031 26344l155 -737 -302 274 32 -137c83,-811 111,-1024 118,-1086l260 -32 430 -106 207 26 144 -161 456 -415 -129 234 -152 203 90 8 -166 264 -153 246 -401 364 294 56 -157 161 -398 458 358 177 -18 166 397 -330 -248 662 -457 448 5 -140 168 -298 -475 287 79 -492 -136 -100z"/>
  <polygon class="fil4" points="9265,27533 9123,28173 9004,27761 8632,28235 8435,28137 8353,27969 8327,27942 8439,27781 8585,27666 8652,27560 8699,27519 8830,27394 9062,27399 9258,27071 "/>
  <polygon class="fil4" points="9076,19013 9445,18509 "/>
  <path class="fil4" d="M5149 20000l-10 -72 66 -80 101 -18 -37 377 -120 -208 0 1zm-83 -728l-64 -350 64 350zm146 322l107 -155 39 48 51 62 287 345 155 -208 20 -5 21 -4 37 371 -63 -88 -24 -78 -140 134 -363 -495 -118 123 -9 -50zm666 -1067l316 67 285 8 -247 0 -355 -75zm988 2393l44 66 -177 -29 -261 -50 394 13zm-824 64l-109 -237 -153 -93 6 -466 130 128 70 170 46 427 9 71z"/>
  <polygon class="fil4" points="16903,19402 16893,21010 16902,19436 "/>
  <polygon class="fil4" points="15346,17701 15280,17504 15532,17765 15919,18678 "/>
  <polygon class="fil4" points="7843,13750 10584,14055 11180,14268 11720,14918 12117,15716 13063,16039 12980,16079 12701,16105 12423,16158 12747,16717 12654,17783 12522,20295 12732,20293 12788,17644 13094,20817 13148,20735 13344,19130 13310,18776 12984,17615 12936,17279 13329,17279 13576,17845 13717,18894 13717,21251 13735,21230 13823,21014 13978,19625 13948,17805 13222,17032 13329,17279 12936,17279 12789,16255 13066,16328 13601,16605 13085,16235 13658,16479 14117,16813 14998,17929 15122,18252 15308,18957 15653,19843 15709,19991 15794,20135 15998,19749 16691,20671 16695,21044 16648,21101 16491,21201 16416,21068 16299,20935 16142,20699 15852,20485 15714,20410 15533,20832 15353,20375 15070,18654 14107,16946 14114,17130 14384,17532 15026,18948 15021,19628 15286,20800 15062,22046 15098,20109 14953,20087 14955,21352 14915,21331 14873,21264 14578,20879 14480,21195 14353,22336 14351,22346 14340,22336 14444,20366 14490,18668 14271,18978 14219,20482 14156,21218 14029,22713 13886,22159 13444,21954 13051,22501 13081,22660 13089,22702 13025,22918 12746,22648 12592,22036 12284,21970 12170,21967 12011,21751 12026,21746 12253,21672 12434,21298 12135,20951 11627,21097 11549,21119 11395,20908 11659,20728 11952,20435 11651,20604 11279,20750 11437,20569 11334,20319 11061,20385 11307,20145 11390,20000 11881,19315 12147,18407 12193,17900 11654,18028 11832,17041 11302,17378 11450,17768 11478,18270 11364,17949 11248,17611 11073,17126 10786,16468 10649,16231 10553,15994 11215,16071 11189,15839 11038,15729 11020,15710 11323,15688 11064,15553 11410,15346 11506,15151 11533,14882 11428,14694 11263,14515 11110,15040 11091,14740 11176,14583 11178,14358 11052,14463 10443,14583 9606,14339 8248,13805 8310,13853 8528,14015 8908,14161 8838,14177 8804,14185 8936,14348 8149,14109 7909,14005 6725,13992 "/>
  <polygon class="fil4" points="9464,17929 9468,17802 9289,17671 9473,17493 9548,17587 9590,17639 10012,17856 10185,17609 9936,17291 9372,17368 9473,17493 9289,17671 9142,17563 9002,17461 8937,17464 8937,17345 9052,17153 9181,17201 9317,17250 9523,17050 9492,16761 9444,16420 9951,16390 9981,16454 9994,16533 10002,16718 10073,16725 10090,17007 10200,17638 9977,18174 9902,18432 9450,18335 9563,18664 9771,18887 9673,19090 9526,19228 9439,19076 9287,19232 9048,19012 8978,19353 9014,19512 8816,19715 8598,19916 8575,19841 8573,19758 8541,18768 7825,17855 8153,18681 8046,18534 7943,18586 7818,18274 7553,18105 7524,18246 7315,18174 7076,18246 6795,18247 6392,18232 6007,18171 6036,17951 6160,17848 6450,17581 6635,17326 6729,17116 6935,17007 7001,17380 7413,17091 7705,16861 7763,16826 7707,16790 7673,16765 7638,16736 7809,16704 7891,16689 8844,16457 8779,16543 8711,16591 8569,16652 8653,16793 8717,17031 9052,17153 8937,17345 8937,17464 8721,17474 8718,17445 8206,17197 8238,17543 8470,17958 8750,17847 8737,17684 8927,17771 9320,18048 "/>
  <polygon class="fil5" points="6479,18603 6834,18528 6924,19322 6716,19317 "/>
  <polygon class="fil5" points="6232,18603 5878,18528 5788,19322 5996,19317 "/>
  <polygon class="fil6" points="6098,19860 6128,19791 6277,18916 6400,18876 6472,19316 6256,19983 6626,19731 6832,19320 6716,19317 6479,18603 6232,18603 5996,19317 "/>
  <path class="fil7" d="M7111 20337l-202 337 -555 107 -63 -119 14 -121 -160 -129 -4 -226 282 -105 252 -242 406 -544 6 162 -123 337 145 544zm-485 -606l-370 252 216 -667 -72 -440 -123 40 -179 944 -84 415 -87 -226 -63 -88 -24 -78 -140 134 -363 -495 -118 123 -64 -357 -461 -79 69 99 264 188 111 432 66 -80 101 -18 -50 507 524 318 6 -466 130 128 70 170 46 427 9 71 47 50 153 -120 230 -7 394 13 410 -471 -76 -852 127 -653 -238 142 -61 -615 -193 57 90 794 -91 -2 -207 411z"/>
  <polygon class="fil6" points="7111,20337 6966,19793 7088,19455 7082,19294 6676,19838 6424,20080 6142,20185 6146,20411 6306,20540 6292,20662 6355,20780 6909,20674 "/>
 </g>
</svg>
