<?xml version="1.0" encoding="UTF-8"?>
<!DOCTYPE svg PUBLIC "-//W3C//DTD SVG 1.1//EN" "http://www.w3.org/Graphics/SVG/1.1/DTD/svg11.dtd">
<!-- Creator: CorelDRAW X6 -->
<svg xmlns="http://www.w3.org/2000/svg" xml:space="preserve" width="15.4775mm" height="17.5252mm" version="1.1" style="shape-rendering:geometricPrecision; text-rendering:geometricPrecision; image-rendering:optimizeQuality; fill-rule:evenodd; clip-rule:evenodd"
viewBox="0 0 1352 1531"
 xmlns:xlink="http://www.w3.org/1999/xlink">
 <defs>
  <style type="text/css">
   <![CDATA[
    .fil0 {fill:black}
    .fil2 {fill:#BBBBBB}
    .fil1 {fill:#FF7777}
   ]]>
  </style>
 </defs>
 <g id="Layer_x0020_1">
  <metadata id="CorelCorpID_0Corel-Layer"/>
  <polygon class="fil0" points="627,769 670,980 674,980 937,941 909,759 726,749 713,869 848,897 818,853 754,826 777,794 867,805 888,898 842,928 695,923 695,919 663,740 "/>
  <polygon class="fil1" points="566,418 566,418 706,279 816,377 821,365 1017,181 837,476 825,476 685,373 593,457 "/>
  <polygon class="fil1" points="224,366 127,172 242,74 0,0 332,37 193,201 274,356 "/>
  <polygon class="fil0" points="152,948 205,1218 316,827 "/>
  <polygon class="fil0" points="320,570 365,570 365,620 320,620 "/>
  <path class="fil2" d="M189 528l-133 307 96 113 328 -242 29 343 137 213 -57 269 96 0 35 -482 4 6 462 -90 -52 567 182 0 -116 -704 152 -80 -156 8 -625 -146 -55 -45 -9 -18c0,0 -186,-63 -191,-64 -5,-1 -103,9 -103,9l-24 36zm438 241l43 211 5 0 262 -39 -28 -183 -183 -9 -14 120 135 28 -30 -44 -64 -28 23 -31 90 10 21 94 -46 30 -147 -6 0 -3 -32 -179 -36 29zm-307 -199l45 0 0 49 -45 0 0 -49z"/>
  <path class="fil0" d="M162 388l2 81 25 58 24 -36c0,0 98,-10 103,-9 5,1 191,64 191,64l9 18 55 45 51 -110 -59 -84 -142 -54 -106 -10 -17 65 -20 -61 -110 22 -7 11z"/>
  <polygon class="fil2" points="279,355 363,241 434,130 324,349 324,349 324,351 316,350 299,415 "/>
  <path class="fil2" d="M350 351l69 -168c0,0 58,-65 63,-65 5,0 47,-5 47,-5l4 288 -111 -42 -73 -7 1 -2z"/>
  <polygon class="fil2" points="551,410 545,182 567,371 566,418 564,414 "/>
  <path class="fil0" d="M434 130c0,0 40,-33 50,-32 10,1 44,16 44,16l4 288 -111 -42 142 54 -13 -5 -5 -228 6 54 -1 -79 -22 -42c0,0 -42,5 -47,5 -5,0 -63,65 -63,65l-69 168 -1 2 -33 -3 9 1 0 -2 0 0 109 -219z"/>
 </g>
</svg>
