<?xml version="1.0" encoding="UTF-8"?>
<!DOCTYPE svg PUBLIC "-//W3C//DTD SVG 1.1//EN" "http://www.w3.org/Graphics/SVG/1.1/DTD/svg11.dtd">
<!-- Creator: CorelDRAW X6 -->
<svg xmlns="http://www.w3.org/2000/svg" xml:space="preserve" width="640px" height="320px" version="1.1" style="shape-rendering:geometricPrecision; text-rendering:geometricPrecision; image-rendering:optimizeQuality; fill-rule:evenodd; clip-rule:evenodd"
viewBox="0 0 64000 32047"
 xmlns:xlink="http://www.w3.org/1999/xlink">
 <defs>
  <style type="text/css">
   <![CDATA[
    .fil3 {fill:none}
    .fil1 {fill:black}
    .fil2 {fill:#BBBBBB}
    .fil0 {fill:#FF7777}
   ]]>
  </style>
 </defs>
 <g id="Layer_x0020_1">
  <metadata id="CorelCorpID_0Corel-Layer"/>
  <path class="fil3" d="M0 0l64000 0 0 32047 -64000 0 0 -32047zm23588 24140l721 3662 1498 -5298 2219 -1637 388 4633 1859 2885 -777 3634 1304 0 472 -6519 55 83 6241 -1221 -700 7661 2463 -2 -1569 -9518 2053 -1082 -2108 111 -8448 -1972 696 -1492 -399 -569 1243 -1126 1886 1387 166 0 2441 -3994 -2663 2496 -55 166 -1498 -1331 -1882 1885 0 0 7 -645 -291 -2555 82 724 -19 -1065 -296 -571c0,0 -463,-200 -602,-213 -139,-13 -676,428 -676,428l-961 1492 -1126 1543 -75 15 0 0 -1096 -2092 1886 -2219 -4494 -499 3273 999 -1553 1332 1312 2617 -746 152 -101 152 25 1100 341 784 -1802 4155 1304 1526zm5090 -11270c0,0 -569,63 -632,63 -63,0 -847,873 -847,873l-935 2265 -8 30 981 96 1500 573 -58 -3899z"/>
  <polygon class="fil0" points="29195,16982 29195,16982 31077,15097 32575,16428 32631,16262 35294,13765 32853,17760 32686,17760 30800,16373 29557,17499 "/>
  <polygon class="fil0" points="24567,16272 23255,13655 24808,12323 21535,11324 26029,11824 24143,14043 25239,16135 "/>
  <path class="fil1" d="M27400 13085c0,0 537,-440 676,-428 139,13 602,213 602,213 0,0 -569,63 -632,63 -63,0 -847,873 -847,873l-935 2265 -8 30 981 96 -1429 -139 116 11 -2 -26 0 0 1479 -2957z"/>
  <path class="fil1" d="M29158 16930l-175 -67 -72 -3080 82 724 -19 -1065 -296 -571 58 3899 -1500 -573 -981 -96 -448 -44 -228 885 -266 -822 -1492 304 -101 152 25 1100 341 784 329 -481c0,0 1328,-139 1391,-126 63,13 2580,860 2580,860l126 240 746 607 696 -1492 -797 -1138z"/>
  <polygon class="fil2" points="25313,16120 26439,14577 27400,13085 25921,16042 25921,16042 25923,16068 25807,16057 25579,16942 "/>
  <polygon class="fil2" points="28983,16863 28911,13783 29202,16337 29195,16982 29158,16930 "/>
  <polygon class="fil1" points="23588,24140 24309,27802 25807,22503 "/>
  <path class="fil2" d="M24086 18460l-1802 4155 1304 1526 4438 -3273 388 4633 1859 2885 -777 3634 1304 0 472 -6519 55 83 6241 -1221 -700 7661 2463 -2 -1569 -9518 2053 -1082 -2108 111 -8448 -1972 -746 -607 -126 -240c0,0 -2517,-847 -2580,-860 -63,-13 -1391,126 -1391,126l-329 481zm1776 576l610 0 0 666 -610 0 0 -666zm4152 2686l578 2859 62 0 3547 -531 -375 -2469 -2469 -125 -187 1625 1828 375 -406 -594 -859 -375 313 -422 1219 141 281 1266 -625 406 -1984 -78 0 -47 -437 -2422 -484 391z"/>
  <polygon class="fil1" points="30015,21722 30593,24582 30655,24582 34202,24050 33827,21582 31358,21457 31171,23082 32999,23457 32593,22863 31733,22488 32046,22066 33265,22207 33546,23472 32921,23879 30936,23800 30936,23754 30499,21332 "/>
  <polygon class="fil1" points="25862,19036 26473,19036 26473,19702 25862,19702 "/>
  <path class="fil2" d="M26263 16071l935 -2265c0,0 784,-873 847,-873 63,0 632,-63 632,-63l58 3899 -1500 -573 -981 -96 8 -30z"/>
 </g>
</svg>
